<svg width="28" height="38" viewBox="0 0 28 38" fill="none" xmlns="http://www.w3.org/2000/svg">
<path d="M3.85686 32.3979C3.39206 32.3979 3.15266 32.2677 2.99866 32.1296C2.21326 31.4281 2.45126 30.1508 2.59546 29.6173C2.58286 29.6063 2.57026 29.5969 2.55906 29.5859C2.00046 29.1104 1.51746 28.6993 1.54266 28.1705C1.55666 27.899 1.67846 27.6809 1.81986 27.5161C1.56506 27.3545 1.29346 27.1332 1.19966 26.8821C1.14786 26.7425 1.14506 26.5981 1.19406 26.4663C1.26546 26.2701 1.30046 25.8245 1.31026 25.4965C1.24306 25.4573 1.16186 25.4118 1.08066 25.3694C0.613057 25.1183 -0.259143 24.6523 0.0740568 23.7563C0.225257 23.3483 0.429657 23.1145 0.666257 22.843C0.993857 22.4648 1.44326 21.9485 2.04106 20.5849C2.25246 20.1016 2.31266 19.7171 2.22866 19.3719C1.87026 17.889 1.47266 14.9969 2.83626 12.2948C2.91606 12.1363 3.09526 12.0813 3.23666 12.1708C3.37806 12.2602 3.42706 12.4611 3.34726 12.618C2.08586 15.1162 2.46106 17.8137 2.79566 19.1993C2.91606 19.6999 2.84186 20.2475 2.56746 20.8736C1.92906 22.3314 1.44186 22.8916 1.08626 23.2996C0.867857 23.5507 0.725057 23.7155 0.615857 24.0073C0.524857 24.2506 0.692857 24.4295 1.33406 24.7731C1.51886 24.872 1.67846 24.9567 1.79046 25.0587C1.85906 25.1215 1.89966 25.2156 1.89966 25.3161C1.89966 25.4087 1.89546 26.2074 1.75826 26.653C1.84506 26.777 2.18246 27.0061 2.49886 27.1489C2.60666 27.1976 2.67946 27.3137 2.68226 27.4455C2.68506 27.5757 2.61926 27.6966 2.51286 27.7515C2.39246 27.8158 2.13906 28.012 2.12926 28.2018C2.12086 28.3807 2.61646 28.8029 2.91466 29.0571C2.98326 29.1167 3.05326 29.1748 3.12326 29.2344C3.22686 29.3238 3.26466 29.4808 3.21566 29.6173C3.21006 29.6314 2.72006 31.0327 3.36686 31.6086C3.49146 31.72 4.09486 32.004 6.61066 30.9668C6.99846 30.8067 7.41286 30.6231 7.83986 30.4223C7.98966 30.3517 8.16186 30.4301 8.22486 30.598C8.28786 30.7659 8.21786 30.9574 8.06806 31.028C7.63266 31.2336 7.21126 31.4203 6.81366 31.5835C5.32686 32.1955 4.42526 32.3901 3.85966 32.3901L3.85686 32.3979Z" fill="#1E1E1E"/>
<path d="M20.7143 38C20.6723 38 20.6303 37.9906 20.5897 37.9686C20.4427 37.8917 20.3797 37.6955 20.4483 37.5308C22.7177 32.106 23.3435 25.7099 22.2081 19.5209C22.1759 19.3436 22.2781 19.1694 22.4363 19.1334C22.5945 19.0973 22.7499 19.2118 22.7821 19.3891C23.9427 25.7162 23.3015 32.2582 20.9789 37.8117C20.9285 37.9309 20.8235 38.0015 20.7129 38.0015L20.7143 38Z" fill="#1E1E1E"/>
<path d="M1.16747 18.3691C1.04987 18.3691 0.937875 18.2875 0.893075 18.1572C0.873475 18.1007 0.422675 16.7449 0.464675 14.956C0.503875 13.3084 0.989675 10.9797 3.06307 9.19233C3.18067 8.88163 3.61747 7.87576 4.64507 6.89187C5.74547 5.83736 7.76847 4.60553 11.1565 4.72793C11.8915 4.7546 12.6139 4.86916 13.3041 5.06688C13.4609 5.11238 13.5561 5.29127 13.5155 5.46702C13.4749 5.64278 13.3153 5.74948 13.1585 5.70398C12.5103 5.51724 11.8299 5.41053 11.1369 5.38543C5.04827 5.16574 3.59507 9.46694 3.58107 9.51088C3.56147 9.57051 3.52647 9.62386 3.48167 9.66309C-0.239525 12.7984 1.42507 17.8732 1.44187 17.925C1.49927 18.0945 1.42367 18.2843 1.27107 18.3487C1.23607 18.3628 1.20107 18.3706 1.16747 18.3706V18.3691Z" fill="#1E1E1E"/>
<path d="M7.57389 34.8347C7.42409 34.8347 7.29668 34.7076 7.28268 34.5381C7.13008 32.7853 6.46369 31.4593 6.45669 31.4468C6.37689 31.2883 6.42589 31.0874 6.56589 30.998C6.70729 30.9069 6.88649 30.9634 6.96629 31.1204C6.99569 31.18 7.70269 32.5829 7.86649 34.4753C7.88189 34.6558 7.76428 34.8174 7.60328 34.8347C7.59348 34.8347 7.58369 34.8347 7.57389 34.8347Z" fill="#1E1E1E"/>
<path d="M12.2779 38C12.1995 38 12.1211 37.9654 12.0637 37.8964C11.9531 37.7646 11.9587 37.5559 12.0763 37.4319C15.0723 34.2715 16.5479 29.7569 15.8381 25.9312C15.4041 23.593 13.9663 20.4358 9.57867 18.6673C4.96147 16.8062 3.67907 15.1554 2.81527 12.5756C2.75787 12.4061 2.83487 12.2163 2.98747 12.1519C3.13867 12.0876 3.30807 12.1739 3.36547 12.3434C4.18307 14.7866 5.35067 16.2633 9.77747 18.0475C14.4199 19.9195 15.9487 23.2949 16.4135 25.7962C17.1639 29.8401 15.6197 34.5948 12.4795 37.909C12.4221 37.9686 12.3507 37.9984 12.2779 37.9984V38Z" fill="#1E1E1E"/>
<path d="M5.78884 37.9998C5.68804 37.9998 5.59004 37.9417 5.53544 37.8366C5.45284 37.6797 5.50044 37.4788 5.64044 37.3862C9.22444 35.0246 11.4616 31.5001 11.6254 27.9584C11.7696 24.842 10.287 21.906 7.33584 19.4674C4.72904 17.3129 3.20304 14.9748 2.80264 12.519C2.48624 10.5779 3.01964 9.30837 3.04344 9.25501C3.11344 9.09182 3.28984 9.02277 3.43544 9.10123C3.58104 9.17969 3.64264 9.37584 3.57264 9.53904C3.56564 9.5563 3.10084 10.6877 3.38084 12.3997C3.74904 14.6531 5.23724 16.9143 7.68584 18.937C10.8022 21.5137 12.3688 24.6443 12.2134 27.9914C12.0398 31.7544 9.69344 35.4765 5.94004 37.9512C5.89384 37.9826 5.84204 37.9967 5.79164 37.9967L5.78884 37.9998Z" fill="#1E1E1E"/>
<path d="M3.30668 9.72754C3.21428 9.72754 3.12188 9.67732 3.06448 9.58474C2.97208 9.43566 3.00568 9.2301 3.13868 9.1281C3.27448 9.02296 6.50708 6.56558 10.5559 7.65304C10.7141 7.69541 10.8107 7.87273 10.7729 8.05005C10.7351 8.22737 10.5769 8.33565 10.4187 8.29328C6.63168 7.27643 3.50268 9.64594 3.47188 9.66948C3.42148 9.70871 3.36268 9.72754 3.30528 9.72754H3.30668Z" fill="#1E1E1E"/>
<path d="M19.5313 18.3692C19.4277 18.3692 19.3283 18.308 19.2737 18.1997C16.9035 13.3885 13.6317 11.4788 11.3049 10.7224C8.77365 9.90013 6.77445 10.2234 6.75485 10.2265C6.59525 10.2532 6.44545 10.1292 6.42165 9.95035C6.39785 9.77146 6.50705 9.60355 6.66665 9.57687C6.75205 9.56275 8.79185 9.22851 11.4421 10.0822C13.8837 10.8699 17.3151 12.8612 19.7889 17.8827C19.8673 18.0412 19.8155 18.2421 19.6741 18.3299C19.6293 18.3582 19.5803 18.3707 19.5327 18.3707L19.5313 18.3692Z" fill="#1E1E1E"/>
<path d="M18.9013 28.8373C18.7235 28.8263 18.5989 28.6726 18.6087 28.4905C18.8187 24.0701 17.3501 21.0462 16.0803 19.2871C14.6985 17.3743 13.2453 16.4955 13.2299 16.4876C13.0871 16.4029 13.0325 16.2036 13.1081 16.0436C13.1837 15.8835 13.3615 15.8223 13.5043 15.907C13.5673 15.9447 15.0625 16.8423 16.5185 18.8509C17.8611 20.701 19.4151 23.8833 19.1939 28.5266C19.1855 28.7024 19.0567 28.8389 18.9013 28.8389V28.8373Z" fill="#1E1E1E"/>
<path d="M25.8831 21.5374C25.6241 21.5374 25.3791 21.4244 25.1957 21.2173L14.0013 8.6699C13.6541 8.28074 13.4637 7.76447 13.4637 7.21525C13.4637 6.66602 13.6555 6.14975 14.0013 5.76059L16.2973 3.18708C16.4121 3.05841 16.5983 3.05841 16.7117 3.18708C16.8265 3.31576 16.8265 3.52446 16.7117 3.65157L14.4157 6.22507C13.9285 6.77116 13.9285 7.65776 14.4157 8.20385L25.6101 20.7513C25.6829 20.8329 25.7795 20.8784 25.8831 20.8784C25.9867 20.8784 26.0833 20.8329 26.1561 20.7513C26.3059 20.5834 26.3059 20.3087 26.1561 20.1408L23.7705 17.4685C23.6557 17.3398 23.6557 17.1311 23.7705 17.004C23.8853 16.8753 24.0715 16.8753 24.1849 17.004L26.5705 19.6779C26.9499 20.1032 26.9499 20.7936 26.5705 21.2189C26.3871 21.4244 26.1421 21.539 25.8831 21.539V21.5374Z" fill="#1E1E1E"/>
<path d="M23.1293 16.6132C23.0537 16.6132 22.9795 16.5803 22.9221 16.5175L21.0125 14.3771C20.5631 13.8734 20.5631 13.0527 21.0125 12.549L22.8311 10.5106C22.9459 10.3819 23.1321 10.3819 23.2455 10.5106C23.3603 10.6392 23.3603 10.8479 23.2455 10.9751L21.4269 13.0135C21.2057 13.2614 21.2057 13.6631 21.4269 13.911L23.3365 16.0515C23.4513 16.1801 23.4513 16.3888 23.3365 16.5159C23.2791 16.5803 23.2035 16.6117 23.1293 16.6117V16.6132Z" fill="#1E1E1E"/>
<path d="M20.2411 12.5805C20.1655 12.5805 20.0913 12.5491 20.0339 12.4847C19.9191 12.3561 19.9191 12.1474 20.0339 12.0203L22.1059 9.69782C22.2207 9.56915 22.4069 9.56915 22.5217 9.69782C22.6365 9.8265 22.6365 10.0336 22.5217 10.1623L20.4497 12.4847C20.3923 12.5491 20.3181 12.5805 20.2425 12.5805H20.2411Z" fill="#1E1E1E"/>
<path d="M19.5145 11.7676C19.4389 11.7676 19.3647 11.7362 19.3073 11.6719C19.1925 11.5432 19.1925 11.3345 19.3073 11.2058L21.3793 8.88337C21.4941 8.7547 21.6803 8.7547 21.7951 8.88337C21.9099 9.01205 21.9099 9.22075 21.7951 9.34786L19.7231 11.6703C19.6657 11.7346 19.5901 11.766 19.5159 11.766L19.5145 11.7676Z" fill="#1E1E1E"/>
<path d="M18.7893 10.953C18.7137 10.953 18.6395 10.9216 18.5821 10.8573C18.4673 10.7286 18.4673 10.5199 18.5821 10.3928L20.6541 8.07038C20.7689 7.94171 20.9551 7.94171 21.0685 8.07038C21.1833 8.19906 21.1833 8.40776 21.0685 8.53644L18.9965 10.8589C18.9391 10.9232 18.8649 10.9546 18.7893 10.9546V10.953Z" fill="#1E1E1E"/>
<path d="M18.0627 10.1401C17.9871 10.1401 17.9129 10.1088 17.8555 10.0444C17.7407 9.91574 17.7407 9.70704 17.8555 9.57836L19.9275 7.25593C20.0423 7.12726 20.2285 7.12726 20.3419 7.25593C20.4567 7.38461 20.4567 7.59331 20.3419 7.72042L18.2699 10.0428C18.2125 10.1072 18.1369 10.1386 18.0627 10.1386V10.1401Z" fill="#1E1E1E"/>
<path d="M17.3375 9.32583C17.2619 9.32583 17.1877 9.29444 17.1303 9.2301C17.0155 9.10143 17.0155 8.89272 17.1303 8.76562L19.2023 6.44319C19.3171 6.31451 19.5033 6.31451 19.6167 6.44319C19.7315 6.57186 19.7315 6.78057 19.6167 6.90924L17.5447 9.23167C17.4873 9.29601 17.4131 9.32739 17.3375 9.32739V9.32583Z" fill="#1E1E1E"/>
<path d="M16.6109 8.51294C16.5353 8.51294 16.4611 8.47999 16.4037 8.41722C16.2889 8.28854 16.2889 8.07984 16.4037 7.95116L18.4743 5.62873C18.5891 5.50006 18.7753 5.50006 18.8901 5.62873C19.0049 5.75741 19.0049 5.96454 18.8901 6.09322L16.8181 8.41565C16.7607 8.47999 16.6851 8.51137 16.6109 8.51137V8.51294Z" fill="#1E1E1E"/>
<path d="M15.8857 7.69849C15.8101 7.69849 15.7345 7.6671 15.6785 7.60277C15.5637 7.47409 15.5637 7.26539 15.6785 7.13671L17.7505 4.81428C17.8653 4.6856 18.0515 4.6856 18.1649 4.81428C18.2797 4.94296 18.2797 5.15166 18.1649 5.27877L16.0929 7.6012C16.0355 7.66553 15.9599 7.69692 15.8857 7.69692V7.69849Z" fill="#1E1E1E"/>
<path d="M15.1591 6.88564C15.0835 6.88564 15.0093 6.85269 14.9519 6.78992C14.8371 6.66124 14.8371 6.45254 14.9519 6.32543L17.0239 4.003C17.1387 3.87433 17.3249 3.87433 17.4383 4.003C17.5531 4.13168 17.5531 4.33881 17.4383 4.46749L15.3663 6.78992C15.3089 6.85426 15.2347 6.88564 15.1591 6.88564Z" fill="#1E1E1E"/>
<path d="M23.5591 7.69698C23.1685 7.69698 22.7527 7.63421 22.3243 7.47886C20.0815 6.66444 18.4309 3.6594 18.4015 0.332673C18.4001 0.150644 18.5303 0.00156921 18.6913 0C18.8551 0 18.9867 0.144367 18.9881 0.326396C19.0161 3.37851 20.4945 6.12463 22.5049 6.85431C23.9735 7.38784 25.2797 6.63933 25.7739 6.2941C25.9111 6.19681 26.0917 6.24389 26.1785 6.39767C26.2639 6.55145 26.2219 6.75388 26.0847 6.85117C25.6633 7.14618 24.7211 7.69855 23.5591 7.69855V7.69698Z" fill="#1E1E1E"/>
<path d="M25.9895 14.8635C25.9251 14.8635 25.8621 14.84 25.8075 14.7929C24.9409 14.024 24.3725 13.1296 24.1149 12.1362C23.7775 10.8338 23.9679 9.75261 24.1345 8.79853C24.2647 8.05473 24.3879 7.35172 24.2549 6.62204C23.9217 4.80018 22.7177 3.91515 20.5757 3.91515H20.5491C20.3867 3.91515 20.2565 3.76921 20.2551 3.58718C20.2551 3.40673 20.3853 3.25765 20.5477 3.25765C22.9949 3.24667 24.4355 4.33727 24.8289 6.49022C24.9857 7.34858 24.8457 8.15045 24.7085 8.92564C24.5461 9.8499 24.3781 10.8056 24.6763 11.9542C24.8989 12.8141 25.4015 13.5956 26.1701 14.2782C26.2975 14.3912 26.3185 14.5983 26.2177 14.7411C26.1603 14.8227 26.0735 14.8651 25.9881 14.8651L25.9895 14.8635Z" fill="#1E1E1E"/>
<path d="M26.9541 17.3556C26.9163 17.3556 26.8785 17.3477 26.8421 17.3305C26.6923 17.2614 26.6209 17.0684 26.6825 16.9005C28.1231 12.9963 27.1053 11.2325 26.3703 10.5279C25.4981 9.69154 24.2073 9.65702 22.8409 9.61936C21.4479 9.58013 19.8701 9.53619 18.5009 8.61506C16.7929 7.4664 15.7821 5.04668 15.4951 1.42337C15.4811 1.24291 15.6001 1.08285 15.7611 1.06716C15.9235 1.0499 16.0649 1.18485 16.0803 1.36531C16.3491 4.76736 17.2661 7.01761 18.8033 8.05172C20.0395 8.8834 21.4717 8.92263 22.8563 8.96186C24.3305 9.00266 25.7221 9.04189 26.7525 10.0289C27.6079 10.8496 28.8063 12.8645 27.2257 17.1531C27.1781 17.2802 27.0689 17.3571 26.9541 17.3571V17.3556Z" fill="#1E1E1E"/>
</svg>
