<svg width="28" height="38" viewBox="0 0 28 38" fill="none" xmlns="http://www.w3.org/2000/svg">
<g clip-path="url(#clip0_597_2)">
<path d="M10.8647 21.847L9.81206 20.4871L5.72076 22.7634C4.89781 21.7087 3.40624 21.429 2.04719 22.1852C0.409943 23.0961 -0.414011 25.1641 0.206713 26.804C0.827436 28.444 2.65801 29.0351 4.29514 28.1241C5.65418 27.3679 6.45193 25.8147 6.32894 24.3705L10.8646 21.847H10.8647ZM3.94798 27.2067C2.81661 27.8361 1.55159 27.4277 1.12256 26.2944C0.693537 25.1611 1.26298 23.732 2.39435 23.1025C3.52572 22.4731 4.79074 22.8815 5.21976 24.0148C5.64879 25.1481 5.07935 26.5772 3.94785 27.2067H3.94798Z" fill="#C59D5F"/>
<path d="M14.5642 17.8432L13.6251 22.0781L27.4366 11.1312L28 10.3677L14.5642 17.8432Z" fill="#C59D5F"/>
<path d="M11.5159 28.7003L13.5142 19.6889L17.8801 0L17.3532 0.800888L10.3931 20.1415L11.5671 21.6582L10.1073 28.2411C8.9124 28.3351 7.78216 29.5477 7.39388 31.2986C6.92624 33.4076 7.71221 35.4972 9.14949 35.9658C9.61613 36.1179 10.0939 36.0793 10.5426 35.8872C10.7223 36.5873 11.0145 37.1471 11.4169 37.5592C11.5625 37.7085 11.7226 37.8384 11.8969 37.9488C12.0787 38.0638 12.303 37.9786 12.3979 37.7582C12.4928 37.5378 12.4224 37.2658 12.2407 37.1508C11.7285 36.8267 11.3919 36.2739 11.2148 35.4659C11.8495 34.9298 12.3622 34.0624 12.5989 32.9951C12.9872 31.2444 12.5109 29.5079 11.5158 28.7002L11.5159 28.7003ZM11.7831 19.7994C11.8824 19.6569 12.058 19.639 12.1755 19.7594C12.293 19.8798 12.3078 20.0927 12.2085 20.2352C12.1092 20.3776 11.9335 20.3955 11.8161 20.2751C11.6986 20.1547 11.6838 19.9418 11.7831 19.7994ZM11.7949 32.733C11.4717 34.1906 10.4045 35.1096 9.41114 34.786C8.41793 34.4622 7.87469 33.0182 8.1979 31.5607C8.52111 30.1031 9.58829 29.1842 10.5815 29.5078C11.5747 29.8315 12.1179 31.2755 11.7947 32.733H11.7949Z" fill="#C59D5F"/>
<path d="M10.7084 22.7494L10.8672 22.9733L11.0194 22.2867L10.9304 22.3363L10.7114 22.5646C10.6689 22.609 10.6675 22.6917 10.7084 22.7493V22.7494Z" fill="#C59D5F"/>
<path d="M13.3271 22.8853L13.1893 22.9944L13.1794 23.0391L13.3271 22.8853Z" fill="#C59D5F"/>
<path d="M9.03876 20.3912L9.90534 19.9091L10.0018 20.0335L10.4579 18.7659L9.05469 20.2284C9.01732 20.2673 9.01181 20.3359 9.03864 20.3911L9.03876 20.3912Z" fill="#C59D5F"/>
<path d="M17.096 19.898L15.445 21.2068L15.6435 21.4866L12.8866 24.3602L12.6403 25.4714C12.6815 25.519 12.7426 25.526 12.7822 25.4848L16.0577 22.0707L16.4718 22.6547L13.1963 26.0688C13.1538 26.1132 13.1524 26.1959 13.1933 26.2535L13.4593 26.6286C13.5002 26.6864 13.5679 26.6971 13.6104 26.6528L16.8859 23.2387L17.3 23.8227L14.0245 27.2368C13.982 27.2811 13.9806 27.3638 14.0215 27.4214L14.2875 27.7966C14.3284 27.8543 14.3961 27.8651 14.4386 27.8207L17.7141 24.4067L18.1282 24.9906L14.8527 28.4047C14.8102 28.4491 14.8088 28.5318 14.8497 28.5896L15.1158 28.9647C15.1566 29.0223 15.2243 29.0332 15.2668 28.9889L18.5423 25.5748L18.9564 26.1588L15.6809 29.5728C15.6384 29.6172 15.6371 29.6999 15.6779 29.7575L15.944 30.1327C15.9848 30.1904 16.0525 30.2012 16.095 30.1568L19.3705 26.7428L19.7847 27.3267L16.5092 30.7408C16.4667 30.7852 16.4653 30.8679 16.5061 30.9255L16.7722 31.3006C16.8131 31.3584 16.8808 31.3692 16.9233 31.3248L20.1988 27.9107L20.6129 28.4947L17.3374 31.9088C17.2949 31.9532 17.2935 32.0358 17.3344 32.0935L17.6004 32.4686C17.6413 32.5262 17.709 32.5371 17.7515 32.4928L21.027 29.0787L21.4411 29.6627L18.1656 33.0767C18.1231 33.1211 18.1217 33.2038 18.1626 33.2614L18.4286 33.6366C18.4695 33.6943 18.5372 33.7051 18.5797 33.6607L21.8552 30.2467L22.2693 30.8306L18.9938 34.2447C18.9513 34.2891 18.9499 34.3718 18.9908 34.4294L19.2568 34.8045C19.2977 34.8623 19.3654 34.8731 19.4079 34.8287L22.6834 31.4146L23.0975 31.9986L19.8557 35.3776C19.7946 35.4413 19.7927 35.5601 19.8515 35.643L20.3175 36.3001C20.4651 36.5081 20.709 36.5471 20.8625 36.3871L24.1868 32.9222C24.8679 32.2122 24.8892 30.8881 24.2343 29.9645L17.0955 19.8976L17.096 19.898Z" fill="#C59D5F"/>
<path d="M15.0672 17.0371L14.6431 16.439L14.4321 17.3905L15.0672 17.0371Z" fill="#C59D5F"/>
<path d="M1.00259 9.06259C1.06139 9.14543 1.15856 9.16093 1.21974 9.09724L4.46152 5.71828L4.87563 6.30227L1.60012 9.71634C1.55762 9.76072 1.55624 9.84341 1.59712 9.90102L1.86316 10.2762C1.90403 10.3339 1.97173 10.3447 2.01423 10.3003L5.28974 6.88625L5.70384 7.47023L2.42834 10.8843C2.38584 10.9287 2.38446 11.0114 2.42533 11.069L2.69137 11.4441C2.73225 11.5019 2.79995 11.5127 2.84245 11.4683L6.11795 8.05422L6.53206 8.6382L3.25656 12.0523C3.21405 12.0967 3.21268 12.1793 3.25355 12.2371L3.51959 12.6122C3.56046 12.6699 3.62816 12.6808 3.67066 12.6364L6.94617 9.22234L7.36028 9.80632L4.08477 13.2204C4.04227 13.2648 4.04089 13.3475 4.08176 13.4051L4.34781 13.7802C4.38868 13.838 4.45638 13.8488 4.49888 13.8044L7.77438 10.3903L8.18849 10.9743L4.91299 14.3884C4.87049 14.4327 4.86911 14.5154 4.90998 14.573L5.17602 14.9482C5.21689 15.0059 5.2846 15.0167 5.3271 14.9723L8.6026 11.5583L9.01671 12.1423L5.7412 15.5563C5.6987 15.6007 5.69732 15.6834 5.7382 15.741L6.00424 16.1161C6.04511 16.1738 6.11281 16.1847 6.15531 16.1403L9.43082 12.7262L9.84492 13.3102L6.56942 16.7243C6.52692 16.7687 6.52554 16.8514 6.56641 16.909L6.83245 17.2841C6.87333 17.3419 6.94103 17.3527 6.98353 17.3083L10.259 13.8942L10.6731 14.4782L7.39764 17.8923C7.35514 17.9367 7.35376 18.0193 7.39463 18.0769L7.66067 18.4521C7.70154 18.5098 7.76924 18.5206 7.81175 18.4763L11.0872 15.0622L11.5014 15.6462L8.22585 19.0602C8.18335 19.1046 8.18197 19.1873 8.22284 19.2449L8.48889 19.6201C8.52976 19.6778 8.59746 19.6886 8.63996 19.6442L11.0422 17.1403L12.4217 13.307L6.28833 4.65732C5.63351 3.73377 4.55041 3.56064 3.86926 4.27063L0.544982 7.73578C0.391525 7.89568 0.386761 8.19406 0.534325 8.40215L1.00259 9.06259Z" fill="#C59D5F"/>
</g>
<defs>
<clipPath id="clip0_597_2">
<rect width="28" height="38" fill="white"/>
</clipPath>
</defs>
</svg>
