<svg xmlns="http://www.w3.org/2000/svg" viewBox="0 0 64 64"><g id="Layer_32" data-name="Layer 32"><path d="M17,43v6a10.018,10.018,0,0,0,7,9.539V62a1,1,0,0,0,1,1H39a1,1,0,0,0,1-1V58.539A10.018,10.018,0,0,0,47,49V43a.992.992,0,0,0-.561-.888l1.8-3.746c.063,0,.125.021.188.021a3.2,3.2,0,0,0,3.11-3.988L49.9,27.932,59.744,5.3A3.076,3.076,0,0,0,54.2,2.644L42.712,24.482l-6.069,2.774a3.2,3.2,0,0,0-1.034,5.065l-2.7,5.624,1.8.866,2.6-5.41.9.432-2.6,5.41,1.8.865,2.6-5.41.9.433-2.595,5.41,1.8.865,2.6-5.41.9.433-2.6,5.41L41.36,42H18A1,1,0,0,0,17,43ZM38,61H26V58.949A10.007,10.007,0,0,0,27,59H37a10.007,10.007,0,0,0,1-.051ZM36.892,29.647a1.2,1.2,0,0,1,.584-.573l6.378-2.915a1,1,0,0,0,.468-.443L55.972,3.575A1.07,1.07,0,0,1,56.922,3a1.089,1.089,0,0,1,.468.106,1.072,1.072,0,0,1,.52,1.4h0L47.931,27.447a1,1,0,0,0-.053.644l1.717,6.8a1.2,1.2,0,0,1-1.686,1.38L37.455,31.253A1.2,1.2,0,0,1,36.892,29.647Zm8.531,7.647.9.432L44.274,42H43.165ZM19,44H45v5a8.009,8.009,0,0,1-8,8H27a8.009,8.009,0,0,1-8-8Z"/><path d="M4.048,8.444,5.582,13.2a1,1,0,0,0,.121.25,50.916,50.916,0,0,1,6.165,12.728l3.29,10.2a1,1,0,0,0,.8.681l.467.072a17.924,17.924,0,0,0,2.7.2c.524,0,1.048-.029,1.571-.074l1.062,3.293a1,1,0,0,0,.952.693,1.024,1.024,0,0,0,.307-.048l5.711-1.841a1,1,0,0,0,.645-1.259l-1.061-3.291a17.921,17.921,0,0,0,3.388-2.6l.338-.331a1,1,0,0,0,.252-1.021L29,20.657A51.028,51.028,0,0,1,26.568,6.726a.978.978,0,0,0-.047-.274L24.987,1.693a1,1,0,0,0-1.258-.645L4.693,7.186A1,1,0,0,0,4.048,8.444ZM18.461,35.315a15.834,15.834,0,0,1,10.526-3.393,15.763,15.763,0,0,1-10.526,3.393Zm8.7,2.452-3.808,1.226L22.7,36.97a16.536,16.536,0,0,0,3.811-1.217Zm-.066-16.5,2.807,8.7a17.914,17.914,0,0,0-13.324,4.3l-2.807-8.7A52.97,52.97,0,0,0,8.08,13.449L24.638,8.11A52.952,52.952,0,0,0,27.1,21.271ZM18.6,7.955,17.68,5.1l1.9-.613L20.5,7.341Zm-1.9.614-1.9.613-.921-2.855,1.9-.613ZM12.889,9.8l-1.9.614-.921-2.855,1.9-.614ZM24.311,6.113l-1.9.614-.921-2.854,1.9-.614ZM8.162,8.169l.921,2.855-1.9.614-.92-2.856Z"/></g></svg>