<svg width="100" height="18" viewBox="0 0 100 18" fill="none" xmlns="http://www.w3.org/2000/svg">
<path d="M8 0.879395L9.79611 6.48136H15.6085L10.9062 9.94356L12.7023 15.5455L8 12.0833L3.29772 15.5455L5.09383 9.94356L0.391548 6.48136H6.20389L8 0.879395Z" fill="#333333"/>
<path d="M29 0.879395L30.7961 6.48136H36.6085L31.9062 9.94356L33.7023 15.5455L29 12.0833L24.2977 15.5455L26.0938 9.94356L21.3915 6.48136H27.2039L29 0.879395Z" fill="#333333"/>
<path d="M50 0.879395L51.7961 6.48136H57.6085L52.9062 9.94356L54.7023 15.5455L50 12.0833L45.2977 15.5455L47.0938 9.94356L42.3915 6.48136H48.2039L50 0.879395Z" fill="#333333"/>
<path d="M71 0.879395L72.7961 6.48136H78.6085L73.9062 9.94356L75.7023 15.5455L71 12.0833L66.2977 15.5455L68.0938 9.94356L63.3915 6.48136H69.2039L71 0.879395Z" fill="#333333"/>
<path d="M92 0.879395L93.7961 6.48136H99.6085L94.9062 9.94356L96.7023 15.5455L92 12.0833L87.2977 15.5455L89.0938 9.94356L84.3915 6.48136H90.2039L92 0.879395Z" fill="#333333"/>
</svg>
