<svg width="40" height="40" viewBox="0 0 40 40" fill="none" xmlns="http://www.w3.org/2000/svg">
<path d="M37.3717 11.0711C37.7565 11.49 38.524 11.2317 38.5828 10.6666C38.5828 10.6666 39.9899 0.817737 39.9899 0.817737C40.0651 0.364777 39.6394 -0.0698067 39.1819 0.00939811C39.1819 0.00938383 29.3331 1.41616 29.3331 1.41616C28.7636 1.48233 28.5147 2.23507 28.9286 2.62766C28.9286 2.62765 30.8891 4.59379 30.8891 4.59379L28.0916 7.39166C23.4409 4.26462 16.6376 4.19557 11.9028 7.38676C11.9027 7.38665 9.1102 4.59379 9.1102 4.59379L11.0708 2.62765C11.4878 2.24127 11.2321 1.47607 10.6662 1.41618C10.6662 1.41617 0.817384 0.00938381 0.817384 0.00938381C0.363831 -0.0670356 -0.0696819 0.361585 0.00938727 0.817759C0.00937299 0.817745 1.4165 10.6666 1.4165 10.6666C1.48178 11.2345 2.23594 11.4872 2.62765 11.0711C2.62764 11.0711 4.59378 9.11056 4.59378 9.11056L7.79618 12.3133C8.08608 12.5794 8.51067 12.5742 8.8061 12.3133C11.3125 8.6905 15.5666 6.39206 19.9997 6.43025C27.482 6.43021 33.5695 12.5177 33.5695 20C32.195 41.3356 1.02714 35.4378 7.29755 15.218C7.43733 14.8493 7.25146 14.4371 6.88284 14.2969C6.51598 14.1581 6.10169 14.3429 5.96185 14.7119C4.26611 19.0154 4.88621 24.3429 7.39128 28.0917C7.39121 28.0917 4.59378 30.8895 4.59378 30.8895L2.62763 28.9289C2.24133 28.51 1.47614 28.7685 1.4165 29.3334C1.41649 29.3334 0.00935867 39.1823 0.00935867 39.1823C-0.0671036 39.6351 0.362295 40.0698 0.817384 39.9906C0.817369 39.9906 10.6662 38.5839 10.6662 38.5839C11.2346 38.5171 11.4854 37.7654 11.0707 37.3723C11.0708 37.3724 9.11019 35.4062 9.11019 35.4062L11.9077 32.6084C16.5046 35.7561 23.4948 35.7573 28.0915 32.6082C28.0915 32.6084 30.8891 35.4062 30.8891 35.4062L28.9285 37.3724C28.5104 37.7582 28.768 38.5244 29.3331 38.5838C29.3331 38.5839 39.1819 39.9906 39.1819 39.9906C39.6325 40.0651 40.0707 39.6397 39.9899 39.1823C39.9899 39.1823 38.5828 29.3334 38.5828 29.3334C38.5164 28.7646 37.7642 28.5139 37.3716 28.9289C37.3717 28.9289 35.4055 30.8895 35.4055 30.8895L32.6081 28.0917C35.7557 23.4946 35.7569 16.5052 32.6079 11.9083C32.6081 11.9083 35.4055 9.11052 35.4055 9.11052L37.3717 11.0711ZM8.23096 10.7282L5.09945 7.59636C4.82081 7.31738 4.36956 7.31807 4.09022 7.59566L2.62869 9.05266L1.55809 1.55844L9.05266 2.62904L7.59531 4.09023C7.31702 4.36921 7.31737 4.82117 7.59601 5.09945L10.7277 8.23144C9.79846 8.96391 8.96338 9.79904 8.23096 10.7282ZM7.59601 34.9006C7.31737 35.1789 7.31703 35.6308 7.59531 35.9098L9.05266 37.371L1.55809 38.4416L2.62869 30.9474L4.09022 32.4044C4.36955 32.6827 4.82081 32.682 5.09945 32.4037L8.23266 29.2702C8.96478 30.1975 9.80204 31.0348 10.7294 31.7669L7.59601 34.9006ZM34.8999 32.4037C35.1789 32.682 35.6301 32.6827 35.9091 32.4044L37.3706 30.9474L38.4412 38.4416L30.9467 37.371L32.404 35.9098C32.6823 35.6308 32.682 35.1789 32.4033 34.9006L29.27 31.7669C30.1973 31.0348 31.0345 30.1975 31.7667 29.2702L34.8999 32.4037ZM34.8999 7.59636L31.7667 10.7299C31.0345 9.80252 30.1973 8.96521 29.27 8.2331L32.4033 5.09945C32.682 4.82117 32.6823 4.36921 32.404 4.09023L30.9467 2.62904L38.4412 1.55844L37.3706 9.05266L35.9091 7.59566C35.6301 7.31807 35.1789 7.31737 34.8999 7.59636Z" fill="white"/>
<path d="M19.9996 10.0012C22.0916 10.0012 24.0944 10.6421 25.7909 11.8536C26.1104 12.0831 26.5582 12.0085 26.7869 11.6876C27.0164 11.3668 26.9421 10.9211 26.6209 10.6916C14.6571 2.56847 1.82402 19.0242 12.574 28.6787C12.8958 28.9251 13.2978 28.8814 13.5805 28.5968C15.2191 21.9625 23.9296 21.3628 26.152 27.8653C23.462 30.043 19.5408 30.6005 16.3665 29.3076C15.9996 29.1611 15.5843 29.3376 15.4375 29.7037C15.2903 30.0699 15.4675 30.4856 15.8336 30.6328C26.2917 34.7589 35.8732 22.5455 29.3084 13.3782C28.7576 12.622 27.609 13.444 28.1459 14.2083C30.8983 17.9312 30.5188 23.5012 27.2987 26.8227C26.4672 24.7336 24.7614 23.1042 22.68 22.3381C25.8035 19.8806 24.028 14.6966 19.9995 14.7146C15.9707 14.6995 14.1949 19.8772 17.3192 22.3381C15.2383 23.1041 13.5329 24.7326 12.701 26.821C12.3987 26.4977 12.1126 26.1568 11.8529 25.791C7.12718 19.346 11.9982 9.89607 19.9996 10.0012ZM17.1428 18.9998C17.2626 15.2243 22.7371 15.2252 22.8564 18.9999C22.7366 22.7753 17.262 22.7744 17.1428 18.9998Z" fill="white"/>
</svg>
