<svg xmlns="http://www.w3.org/2000/svg" version="1.1" xmlns:xlink="http://www.w3.org/1999/xlink" width="512" height="512" x="0" y="0" viewBox="0 0 512 512" style="enable-background:new 0 0 512 512" xml:space="preserve" fill-rule="evenodd" class=""><g><path d="M200 512c-6 0-12-1-19-2-19-6-35-18-45-36-10-17-12-36-7-55 9-31 34-52 65-55l10-56-56 10c-3 30-25 57-55 65-19 5-39 2-56-7-17-10-29-26-35-45-10-40 14-81 52-91 31-8 64 4 81 30l53-15-2-5c-1-4 2-8 5-9l24-6L277 5c1-3 5-5 8-5 4 1 6 4 6 7l-4 218 218-4c3 0 6 3 7 6 0 3-2 7-5 8l-230 62-6 24c-1 1-2 3-4 4-1 1-3 1-5 0l-5-1-15 53c26 17 38 49 30 80-9 33-39 55-72 55zm-15-16c32 8 64-11 73-43 8-26-4-54-27-67-3-2-4-5-4-8l18-65c1-2 2-3 4-4s4-1 5-1l5 2 5-21c1-2 3-4 5-5l179-48-168 3c-2 0-3-1-5-2-1-1-2-3-2-5l3-168-48 179c-1 2-3 4-5 5l-21 5 1 5c1 4-1 8-5 9l-64 18c-3 0-6-1-8-4-13-23-41-34-68-27-31 8-50 41-42 73 9 33 41 51 73 42 27-7 45-30 45-57 0-4 3-6 6-7l71-12c2 0 5 0 6 2 2 2 2 4 2 6l-12 71c0 3-3 6-7 6-27 0-50 18-57 45-4 15-2 31 5 44 8 14 21 25 37 29z" fill="#ffffff" opacity="1" data-original="#000000" class=""></path><path d="M201 476c-4 0-7 0-11-1-10-3-18-9-23-18s-7-19-4-29 9-18 18-23c8-6 19-7 29-5 21 6 33 27 28 47v1c-3 10-10 18-18 23-6 3-13 5-19 5zm0-63c-5 0-9 1-13 4-6 3-10 8-11 14v1c-2 6-1 13 2 18 3 6 8 10 15 11 13 4 26-4 30-17 3-13-4-26-18-30-1-1-3-1-5-1zM73 350c-6 0-13-2-18-5-9-5-16-13-19-23v-1c-4-20 8-41 28-47 10-2 20-1 29 4s16 14 18 23c3 10 2 21-4 30-5 9-13 15-23 17-4 2-7 2-11 2zm-23-32c4 13 17 21 30 17h1c6-1 11-5 14-11 4-6 4-13 3-19h-1c-3-12-17-20-29-17-13 4-21 17-18 30zM247 284c-4 0-7-1-10-2-4-3-7-7-8-12-2-5-1-10 1-14 2-5 7-8 12-10 5-1 10-1 14 1 5 3 8 7 10 13 1 4 1 9-1 14-3 4-8 8-13 10h-5zm0-25-1 1c-2 0-3 1-4 3 0 0-1 2 0 3 0 2 2 5 6 4 2 0 3-1 4-3 0 0 1-2 0-3 0-2-1-3-3-4 0 0-1-1-2-1z" fill="#ffffff" opacity="1" data-original="#000000" class=""></path></g></svg>