<svg width="11" height="22" viewBox="0 0 11 22" fill="none" xmlns="http://www.w3.org/2000/svg">
<path d="M0.000152347 19.3963C-0.00139076 19.3251 0.0088022 19.2543 0.0301092 19.1882C0.0514162 19.122 0.0833898 19.062 0.124077 19.0116L6.59415 11.0031L0.128289 2.98927C0.0489794 2.89103 0.00442616 2.75787 0.00442526 2.61897C0.00442436 2.48007 0.048976 2.34685 0.128284 2.24861L1.8206 0.153339C1.89995 0.055154 2.00754 -3.71229e-06 2.11972 1.87372e-10C2.2319 3.71267e-06 2.33949 0.0552092 2.41884 0.1534L10.8761 10.6327C10.9554 10.731 11 10.8642 11 11.0031C11 11.142 10.9554 11.2752 10.8761 11.3734L2.41461 21.8466C2.37455 21.8962 2.32684 21.9353 2.27432 21.9617C2.2218 21.988 2.16554 22.0011 2.10888 22C1.99897 21.9978 1.89407 21.9427 1.8164 21.8464L0.124109 19.7522C0.0475555 19.6575 0.00314455 19.5303 0.000152347 19.3963Z" fill="white"/>
</svg>
