<svg width="28" height="37" viewBox="0 0 28 37" fill="none" xmlns="http://www.w3.org/2000/svg">
<path d="M23.4289 35.6681L20.761 34.6597L19.0175 36.9123C18.9038 37.0589 18.6716 37.0139 18.6211 36.8358L15.4235 25.5538L20.5293 24.1135L23.727 35.3955C23.7775 35.5737 23.603 35.7333 23.4294 35.6677L23.4289 35.6681Z" fill="#C59D5F"/>
<path d="M4.57111 35.6681L7.239 34.6597L8.98257 36.9123C9.0962 37.0589 9.3284 37.0139 9.3789 36.8358L12.5766 25.5538L7.47075 24.1135L4.27307 35.3955C4.22257 35.5737 4.39707 35.7333 4.57066 35.6677L4.57111 35.6681Z" fill="#C59D5F"/>
<path d="M28 13.924C28 14.9545 26.9043 15.8487 26.6843 16.8131C26.4575 17.809 27.0504 19.0873 26.6162 19.9856C26.1748 20.8987 24.7983 21.2306 24.1706 22.0151C23.5398 22.8031 23.5191 24.2146 22.7291 24.8439C21.9428 25.47 20.5599 25.1786 19.6446 25.6189C18.7442 26.0521 18.1134 27.3169 17.1156 27.5436C16.1489 27.7627 15.033 26.9013 14 26.9013C12.967 26.9013 11.8511 27.7631 10.8844 27.5436C9.88612 27.3174 9.25578 26.0525 8.35536 25.6189C7.44007 25.1786 6.0572 25.47 5.27085 24.8439C4.4809 24.2146 4.46016 22.8031 3.82937 22.0151C3.20174 21.2306 1.82519 20.8987 1.38377 19.9856C0.949565 19.0873 1.54248 17.809 1.31568 16.8131C1.0961 15.8487 0 14.9549 0 13.924C0 12.893 1.09565 11.9993 1.31568 11.0349C1.54248 10.039 0.949565 8.76068 1.38377 7.86242C1.82519 6.94932 3.20174 6.61736 3.82937 5.8329C4.46016 5.04484 4.4809 3.63335 5.27085 3.00408C6.0572 2.37795 7.44007 2.66942 8.35536 2.22906C9.25578 1.7959 9.88657 0.53105 10.8844 0.304348C11.8511 0.085293 12.967 0.94667 14 0.94667C15.033 0.94667 16.1489 0.0848432 17.1156 0.304348C18.1139 0.5306 18.7442 1.79545 19.6446 2.22906C20.5599 2.66942 21.9428 2.37795 22.7291 3.00408C23.5191 3.63335 23.5398 5.04484 24.1706 5.8329C24.7983 6.61736 26.1748 6.94932 26.6162 7.86242C27.0504 8.76068 26.4575 10.039 26.6843 11.0349C26.9039 11.9993 28 12.893 28 13.924Z" fill="#C59D5F"/>
<path d="M20.9786 20.8861C24.8328 17.0411 24.8328 10.8071 20.9786 6.96205C17.1243 3.11703 10.8754 3.11703 7.0211 6.96205C3.16685 10.8071 3.16685 17.0411 7.0211 20.8861C10.8754 24.7311 17.1243 24.7311 20.9786 20.8861Z" fill="white"/>
<path d="M9.79232 12.4142L8.45134 13.7519C8.27825 13.9246 8.27826 14.2046 8.45134 14.3772L12.6391 18.5549C12.8122 18.7276 13.0928 18.7276 13.2659 18.5549L14.6069 17.2172C14.78 17.0445 14.78 16.7646 14.6069 16.5919L10.4191 12.4142C10.246 12.2415 9.96541 12.2415 9.79232 12.4142Z" fill="#C59D5F"/>
<path d="M11.2983 17.2174L12.6393 18.5551C12.8124 18.7278 13.093 18.7278 13.2661 18.5551L19.854 11.9831C20.0271 11.8104 20.0271 11.5304 19.854 11.3578L18.513 10.02C18.3399 9.84733 18.0593 9.84733 17.8862 10.02L11.2983 16.5921C11.1252 16.7648 11.1252 17.0447 11.2983 17.2174Z" fill="#C59D5F"/>
</svg>
