<svg width="22" height="29" viewBox="0 0 22 29" fill="none" xmlns="http://www.w3.org/2000/svg">
<path d="M21.9986 28.3483L20.6412 6.20076C20.6214 5.87885 20.37 5.62873 20.0664 5.62873H16.8455C16.5553 2.47378 14.0446 0 10.9998 0C7.95495 0 5.44447 2.47378 5.15411 5.62873H1.93319C1.62962 5.62873 1.37816 5.87905 1.35843 6.20076L0.00119563 28.3483C-0.00904134 28.5171 0.0467967 28.6828 0.155681 28.8064C0.264565 28.93 0.41663 29 0.575955 29H21.424C21.5831 29 21.7354 28.93 21.8443 28.8064C21.9532 28.683 22.0092 28.5171 21.9988 28.3483H21.9986ZM10.9998 1.22374C13.4086 1.22374 15.4008 3.15021 15.6859 5.62873H6.31368C6.59883 3.15021 8.59094 1.22374 10.9998 1.22374ZM1.19055 27.7761L2.47296 6.85227H5.12564V8.29806C4.80829 8.50449 4.59573 8.87503 4.59573 9.29935C4.59573 9.9481 5.09083 10.4741 5.70151 10.4741C6.31219 10.4741 6.80729 9.9481 6.80729 9.29935C6.80729 8.87503 6.59492 8.50449 6.27757 8.29806V6.85227H15.7226V8.29806C15.4052 8.50449 15.1927 8.87503 15.1927 9.29935C15.1927 9.9481 15.6878 10.4741 16.2985 10.4741C16.9091 10.4741 17.4042 9.9481 17.4042 9.29935C17.4042 8.87503 17.1919 8.50449 16.8745 8.29806V6.85227H19.5272L20.8096 27.7761H1.19055Z" fill="white"/>
</svg>
