<svg width="28" height="34" viewBox="0 0 28 34" fill="none" xmlns="http://www.w3.org/2000/svg">
<path d="M25.4836 24.8935V10.7665C25.4836 4.82967 21.5048 0 16.6139 0C11.723 0 7.74484 4.82967 7.74484 10.7665V14.0905H6.74632C6.45444 13.6254 5.99634 13.3443 5.51108 13.3443H1.55172C0.695674 13.3443 0 14.1892 0 15.2274V16.6151C0 17.6537 0.695674 18.4983 1.55172 18.4983H2.18456C2.19808 18.5127 2.21172 18.526 2.22694 18.5385C2.54342 18.7908 2.68759 18.9828 2.67992 19.1842C2.69186 19.4581 2.26505 19.7691 1.88756 20.0436C1.32937 20.4504 0.69811 20.9097 0.771902 21.7038C0.69811 22.4979 1.32925 22.9572 1.88756 23.364C2.2642 23.6379 2.69186 23.9489 2.67992 24.2636C2.69186 24.5376 2.26505 24.8486 1.88841 25.1231C1.31402 25.5407 0.664257 26.0145 0.776164 26.7827V33.5794C0.776164 33.7978 0.922045 33.9749 1.1019 33.9749C1.28175 33.9749 1.42764 33.7978 1.42764 33.5794L1.42337 26.7163C1.381 26.4146 1.80939 26.103 2.22341 25.8013C2.757 25.4125 3.36281 24.9717 3.33139 24.2636C3.36281 23.5149 2.757 23.0747 2.22255 22.6853C1.80853 22.3841 1.38015 22.072 1.42252 21.7697C1.42849 21.726 1.42849 21.6816 1.42252 21.6379C1.38015 21.3356 1.80853 21.0235 2.22255 20.7218C2.757 20.333 3.36281 19.8922 3.33054 19.1852C3.34247 18.9179 3.26771 18.6892 3.15836 18.4983H5.51096C5.99622 18.4983 6.45432 18.2171 6.7462 17.7516H7.99581C7.96354 18.0564 7.83288 18.3 7.68529 18.5756C7.46806 18.9803 7.22208 19.4386 7.26031 20.0865C7.22208 20.7869 7.46818 21.2451 7.68529 21.6498C7.85918 21.9748 8.00932 22.2555 8.00348 22.6602C8.00945 23.0496 7.8593 23.3301 7.68444 23.6546C7.51141 23.9781 7.31962 24.3353 7.26872 24.7963H6.94469C5.16136 24.7963 3.71071 26.5574 3.71071 28.7217V33.5509C3.71071 33.7692 3.85659 33.9463 4.03644 33.9463C4.2163 33.9463 4.36218 33.7692 4.36218 33.5509V28.7217C4.36218 26.9935 5.52107 25.5873 6.94469 25.5873H7.27213C7.32644 26.0615 7.51481 26.4123 7.68529 26.7293C7.85918 27.0538 8.00932 27.3344 8.00348 27.7391C8.00945 28.1289 7.8593 28.4096 7.68529 28.7345C7.46806 29.1388 7.22208 29.5975 7.26031 30.2454C7.22208 30.9452 7.46818 31.4041 7.68529 31.8084C7.85918 32.1333 8.00932 32.414 8.00348 32.8192C8.00689 33.019 7.97121 33.1997 7.88646 33.4052C7.8067 33.6003 7.87209 33.8383 8.03319 33.9355C8.19271 34.0313 8.39034 33.9536 8.4701 33.7574C8.60162 33.4361 8.66104 33.1327 8.65507 32.8187C8.6653 32.1864 8.43455 31.7563 8.23082 31.3769C8.03818 31.018 7.88634 30.7347 7.91008 30.2456C7.88634 29.8083 8.03818 29.5253 8.23082 29.1663C8.43442 28.7869 8.66518 28.3569 8.65507 27.7394C8.6653 27.107 8.43455 26.677 8.23082 26.2975C8.04926 25.9592 7.90338 25.6878 7.90765 25.2471C7.9102 25.2291 7.91106 25.2106 7.91106 25.192C7.91106 25.1833 7.91106 25.1745 7.9102 25.1657C7.88646 24.729 8.03831 24.4458 8.23095 24.0868C8.43455 23.7074 8.6653 23.2774 8.6552 22.6605C8.66542 22.0277 8.43467 21.5977 8.23095 21.2186C8.03831 20.8597 7.88646 20.5761 7.9102 20.0868C7.88646 19.6501 8.03831 19.3664 8.23095 19.0075C8.41421 18.6666 8.61866 18.2851 8.65093 17.752H13.5809C13.5487 18.0569 13.418 18.3005 13.2704 18.576C13.0532 18.9808 12.8072 19.439 12.8453 20.0869C12.8071 20.7873 13.0532 21.2455 13.2704 21.6503C13.4443 21.9752 13.5944 22.2559 13.5886 22.6607C13.5946 23.05 13.4444 23.3306 13.2704 23.6555C13.0532 24.0602 12.8072 24.5185 12.8453 25.1658C12.8071 25.8662 13.0532 26.3244 13.2704 26.7292C13.4443 27.0541 13.5944 27.3348 13.5886 27.7396C13.5946 28.1294 13.4444 28.4101 13.2704 28.735C13.0532 29.1393 12.8072 29.598 12.8453 30.2459C12.8071 30.9457 13.0532 31.4045 13.2704 31.8088C13.4443 32.1337 13.5944 32.4145 13.5886 32.8192C13.592 33.0267 13.5538 33.2131 13.4648 33.4242C13.3833 33.6183 13.4461 33.8568 13.6064 33.9567C13.6539 33.9861 13.7048 34 13.7548 34C13.8727 34 13.9873 33.9217 14.045 33.7848C14.1833 33.4563 14.246 33.1441 14.2401 32.8192C14.2503 32.1868 14.0195 31.7568 13.8158 31.3773C13.6232 31.0184 13.4713 30.7352 13.4951 30.246C13.4713 29.8088 13.6232 29.5257 13.8158 29.1668C14.0194 28.7873 14.2502 28.3573 14.2401 27.7398C14.2503 27.107 14.0195 26.677 13.8158 26.298C13.7055 26.0925 13.6088 25.9117 13.5502 25.7033L16.4619 28.6333C16.5806 28.7533 16.7521 28.7548 16.8708 28.6399L20.0709 25.5878H24.7668C26.1904 25.5878 27.3484 26.9942 27.3484 28.7223V33.5515C27.3484 33.7698 27.4943 33.9469 27.6741 33.9469C27.854 33.9469 27.9999 33.7698 27.9999 33.5515V28.7223C27.9999 26.8566 26.9225 25.2912 25.4836 24.8941V24.8935ZM6.57329 16.9608C6.45712 16.9608 6.3502 17.036 6.29163 17.1579C6.12956 17.4968 5.83012 17.7074 5.51108 17.7074H1.55172C1.05538 17.7074 0.651593 17.2177 0.651593 16.6151V15.2274C0.651593 14.6254 1.05538 14.1351 1.55172 14.1351H5.51108C5.83012 14.1351 6.12956 14.3458 6.29163 14.6846C6.3502 14.8061 6.45712 14.8813 6.57329 14.8813H14.699C14.9213 14.8813 15.102 15.1007 15.102 15.3705V16.4719C15.102 16.7412 14.9213 16.9606 14.699 16.9606H6.57329V16.9608ZM19.6324 24.9995L16.6758 27.8198L13.5504 24.674C13.6081 24.4741 13.7056 24.2929 13.8159 24.0864C14.0195 23.7074 14.2503 23.2774 14.2402 22.6601C14.2504 22.0272 14.0197 21.5972 13.8159 21.2182C13.7599 21.1127 13.7065 21.0133 13.6598 20.9138C14.683 21.5076 16.7887 22.2728 19.6324 20.9385V24.9994V24.9995ZM19.6324 20.0865C16.2856 21.7745 14.045 20.3301 13.4961 19.9042C13.5164 19.5654 13.6513 19.3135 13.8159 19.0072C13.9992 18.6663 14.2037 18.2848 14.2359 17.7518H14.6991C15.2802 17.7518 15.7537 17.1776 15.7537 16.4721V15.3706C15.7537 14.6646 15.2802 14.0905 14.6991 14.0905H14.2207V10.1856C15.467 6.00841 17.0026 4.79212 17.8094 4.43883C18.2455 4.24725 18.4296 4.49751 18.8834 5.31985C19.6394 6.68958 19.636 9.31328 19.6325 11.0492V20.0865H19.6324ZM24.8321 24.7967C24.8101 24.7963 24.7889 24.7963 24.7669 24.7963H20.284V11.0508C20.2874 9.10899 20.2917 6.44981 19.3899 4.81577C19.0107 4.13091 18.5406 3.27915 17.5888 3.69468C16.67 4.09691 14.9282 5.44905 13.5886 9.98322C13.5758 10.0259 13.5691 10.0713 13.5691 10.1166V14.0903H8.39655V10.7664C8.39655 5.26575 12.0836 0.790852 16.6148 0.790852C21.146 0.790852 24.8323 5.26575 24.8323 10.7664V24.7965L24.8321 24.7967Z" fill="#1D1D1B"/>
</svg>
