<svg width="28" height="38" viewBox="0 0 28 38" fill="none" xmlns="http://www.w3.org/2000/svg">
<path fill-rule="evenodd" clip-rule="evenodd" d="M13.9993 5.76865C10.4868 5.76865 7.63515 8.64863 7.63515 12.1764V16.8246C7.63515 20.3611 10.4955 23.2324 13.9993 23.2324C17.5117 23.2324 20.3634 20.3524 20.3634 16.8246V12.1764C20.3634 8.64863 17.503 5.76865 13.9993 5.76865ZM13.9993 24.0727C10.0347 24.0727 6.8092 20.8251 6.8092 16.8334V12.1851C6.8092 8.19344 10.0347 4.9458 13.9993 4.9458C17.9638 4.9458 21.1893 8.19344 21.1893 12.1851V16.8334C21.1893 20.8163 17.9638 24.0727 13.9993 24.0727Z" fill="black"/>
<path fill-rule="evenodd" clip-rule="evenodd" d="M16.6163 16.7546C16.1729 16.7546 15.7382 16.5795 15.3122 16.2381C15.1383 16.098 15.1035 15.8354 15.2513 15.6516C15.3904 15.4765 15.6512 15.4415 15.8338 15.5903C16.3815 16.028 16.8684 16.028 17.4161 15.5903C17.59 15.4503 17.8508 15.4765 17.9986 15.6516C18.1378 15.8267 18.1117 16.0893 17.9378 16.2381C17.4944 16.5795 17.0597 16.7546 16.6163 16.7546Z" fill="black"/>
<path fill-rule="evenodd" clip-rule="evenodd" d="M11.3737 16.7546C10.9303 16.7546 10.4956 16.5795 10.0696 16.2381C9.89572 16.098 9.86094 15.8354 10.0087 15.6516C10.1478 15.4765 10.4087 15.4415 10.5913 15.5903C11.139 16.028 11.6259 16.028 12.1736 15.5903C12.3562 15.4503 12.6083 15.4765 12.7561 15.6516C12.8952 15.8267 12.8691 16.0893 12.6952 16.2381C12.2518 16.5795 11.8171 16.7546 11.3737 16.7546Z" fill="black"/>
<path fill-rule="evenodd" clip-rule="evenodd" d="M13.9993 21.2715C13.4689 21.2715 12.9473 21.0877 12.4343 20.7288C12.2518 20.5975 12.1996 20.3349 12.33 20.1511C12.4604 19.9672 12.7212 19.9147 12.9038 20.046C13.6515 20.5712 14.3384 20.5712 15.0861 20.046C15.2686 19.9147 15.5295 19.9585 15.6599 20.1511C15.7903 20.3349 15.7468 20.5975 15.5555 20.7288C15.0513 21.0965 14.5209 21.2715 13.9993 21.2715Z" fill="black"/>
<path fill-rule="evenodd" clip-rule="evenodd" d="M7.21784 16.7459H6.5223C5.60072 16.7459 4.85303 15.9931 4.85303 15.0652V14.041C4.85303 13.2707 5.47901 12.6404 6.24409 12.6404H7.22653C7.45258 12.6404 7.63516 12.8242 7.63516 13.0518C7.63516 13.2794 7.45258 13.4632 7.22653 13.4632H6.24409C5.9311 13.4632 5.67897 13.7171 5.67897 14.0322V15.0564C5.67897 15.5291 6.06151 15.9055 6.5223 15.9055H7.21784C7.44389 15.9055 7.62646 16.0894 7.62646 16.317C7.62646 16.5621 7.44389 16.7459 7.21784 16.7459Z" fill="black"/>
<path fill-rule="evenodd" clip-rule="evenodd" d="M21.4763 16.746H20.7808C20.5548 16.746 20.3722 16.5621 20.3722 16.3345C20.3722 16.1069 20.5548 15.9231 20.7808 15.9231H21.4763C21.9458 15.9231 22.3197 15.5379 22.3197 15.074V14.0498C22.3197 13.7347 22.0676 13.4808 21.7546 13.4808H20.7808C20.5548 13.4808 20.3722 13.297 20.3722 13.0694C20.3722 12.8418 20.5548 12.658 20.7808 12.658H21.7633C22.5283 12.658 23.1543 13.2882 23.1543 14.0586V15.0827C23.1456 15.9931 22.3979 16.746 21.4763 16.746Z" fill="black"/>
<path fill-rule="evenodd" clip-rule="evenodd" d="M25.7365 38.0001H2.26226C2.03622 38.0001 1.85364 37.8162 1.85364 37.5886V32.2401C1.85364 32.2226 1.85364 32.2138 1.85364 32.1963C2.01013 30.6907 2.43615 29.5527 3.12298 28.7999C3.96632 27.872 6.02683 26.8916 9.23498 25.8761C10.3391 25.526 10.6956 24.9745 10.6782 23.6702V22.9961C10.6782 22.7685 10.8608 22.5847 11.0868 22.5847C11.3129 22.5847 11.4955 22.7685 11.4955 22.9961V23.6614C11.5215 25.3071 10.9216 26.2088 9.47841 26.6727C5.66168 27.8807 4.24453 28.8086 3.73158 29.3689C3.17515 29.9729 2.80999 30.9796 2.67089 32.2751V37.186H25.3192V32.2751C25.1801 30.9796 24.8149 29.9816 24.2585 29.3689C23.7455 28.8086 22.3284 27.8807 18.5116 26.6727C17.0684 26.2175 16.4685 25.3159 16.4946 23.6614V23.0049C16.4946 22.7773 16.6772 22.5935 16.9032 22.5935C17.1293 22.5935 17.3118 22.7773 17.3118 23.0049V23.6702C17.2945 24.9832 17.6509 25.5347 18.7551 25.8849C21.9632 26.9003 24.015 27.8807 24.8671 28.8086C25.5539 29.5615 25.9799 30.7082 26.1364 32.2051C26.1364 32.2226 26.1364 32.2313 26.1364 32.2488V37.5974C26.1451 37.8162 25.9625 38.0001 25.7365 38.0001Z" fill="black"/>
<path fill-rule="evenodd" clip-rule="evenodd" d="M21.2676 38.0001C21.0416 38.0001 20.859 37.8163 20.859 37.5887V34.4898C20.859 32.5377 19.6505 31.356 18.5116 30.892C17.4248 30.4544 16.3207 30.5944 15.6947 31.2597C15.1817 31.8024 14.5905 32.0913 13.9993 32.0913C13.4081 32.0913 12.8169 31.8024 12.304 31.2597C11.678 30.6032 10.5738 30.4544 9.48706 30.892C8.35682 31.3472 7.13964 32.529 7.13964 34.4898V37.5887C7.13964 37.8163 6.95706 38.0001 6.73101 38.0001C6.50496 38.0001 6.32239 37.8163 6.32239 37.5887V34.4898C6.32239 32.1263 7.80039 30.682 9.18276 30.1305C10.5825 29.5702 12.0431 29.7891 12.9039 30.6907C13.6255 31.4523 14.3819 31.4523 15.1035 30.6907C15.9642 29.7891 17.4161 29.5615 18.8246 30.1305C20.207 30.6907 21.685 32.1263 21.685 34.4898V37.5887C21.6763 37.8163 21.4937 38.0001 21.2676 38.0001Z" fill="black"/>
<path fill-rule="evenodd" clip-rule="evenodd" d="M24.1715 29.1324C23.9455 29.1324 23.7629 28.9486 23.7629 28.721C23.7629 28.4934 23.9455 28.3096 24.1715 28.3096C26.3537 28.3096 26.9884 27.5743 27.0232 27.1803C27.0232 27.1716 27.0232 27.1716 27.0232 27.1541C27.371 21.7793 27.0667 17.3411 26.1016 13.9622C25.3365 11.2835 24.1715 9.27018 22.6326 7.96588C19.9201 5.68115 16.9467 6.38145 16.9206 6.3902C16.7032 6.44273 16.4772 6.31142 16.425 6.08382C16.3729 5.86498 16.5033 5.63738 16.7293 5.58486C16.8684 5.54984 20.1461 4.77951 23.1717 7.32685C24.841 8.73621 26.1016 10.8896 26.9102 13.7346C27.9013 17.2098 28.2143 21.7443 27.8578 27.2066C27.8404 27.4517 27.6231 29.1324 24.1715 29.1324Z" fill="black"/>
<path fill-rule="evenodd" clip-rule="evenodd" d="M3.81847 29.1324C0.366892 29.1324 0.158233 27.4517 0.140845 27.2066C-0.215615 21.7355 0.106068 17.201 1.08851 13.7346C1.89706 10.8983 3.14902 8.73617 4.82699 7.32682C7.85256 4.77072 11.1303 5.54981 11.2694 5.58482C11.4867 5.63734 11.6258 5.86494 11.5737 6.08378C11.5215 6.30263 11.2954 6.44269 11.0781 6.39017C11.052 6.38141 8.05253 5.68987 5.34864 7.97459C3.80978 9.2789 2.64476 11.301 1.88837 13.9797C0.932013 17.3586 0.619023 21.7968 0.975484 27.154C0.975484 27.1716 0.975484 27.1628 0.975484 27.1803C1.01026 27.5742 1.64493 28.3095 3.82717 28.3095C4.05321 28.3095 4.23579 28.4934 4.23579 28.721C4.2271 28.9486 4.04452 29.1324 3.81847 29.1324Z" fill="black"/>
<path fill-rule="evenodd" clip-rule="evenodd" d="M22.2762 7.58074C22.0762 7.58074 21.9023 7.43193 21.8675 7.22184C21.8675 7.19558 21.5111 4.89334 20.0244 3.91292C19.3201 3.44898 18.4594 3.35268 17.4596 3.62405C17.3553 3.65031 17.2422 3.64156 17.1466 3.58028C17.051 3.52776 16.9814 3.43147 16.9553 3.32642C16.5467 1.81202 15.3904 0.831605 13.9993 0.831605C12.6083 0.831605 11.4519 1.81202 11.0433 3.32642C11.0172 3.43147 10.9477 3.519 10.852 3.58028C10.7564 3.6328 10.6434 3.65031 10.539 3.62405C9.53922 3.35268 8.6698 3.44898 7.97427 3.91292C6.48757 4.89334 6.1398 7.20433 6.13111 7.22184C6.09633 7.44944 5.88767 7.607 5.66163 7.57199C5.43558 7.53697 5.27908 7.32688 5.31386 7.09929C5.33125 6.98549 5.72248 4.40313 7.51348 3.21262C8.32204 2.67865 9.27839 2.51232 10.3652 2.72241C10.9564 1.0592 12.3474 0 13.9993 0C15.6512 0 17.0423 1.0592 17.6335 2.72241C18.7116 2.51232 19.6766 2.66989 20.4852 3.21262C22.2762 4.40313 22.6674 6.98549 22.6848 7.09929C22.7196 7.32688 22.5631 7.53697 22.337 7.57199C22.3109 7.58074 22.2935 7.58074 22.2762 7.58074Z" fill="black"/>
<path fill-rule="evenodd" clip-rule="evenodd" d="M7.13096 23.2236C7.11357 23.2236 7.09618 23.2236 7.0788 23.2236C6.85275 23.1973 6.68756 22.9872 6.72234 22.7596C6.80058 22.1119 6.66148 21.753 6.50498 21.3328C6.21808 20.5712 5.93117 19.7834 6.91361 17.7C7.00924 17.4899 7.26137 17.4024 7.46134 17.5074C7.67 17.6037 7.75694 17.8576 7.65261 18.0589C6.81797 19.8271 7.02663 20.3874 7.27007 21.0439C7.43526 21.4991 7.62653 22.0156 7.53089 22.8559C7.5135 23.066 7.33962 23.2236 7.13096 23.2236Z" fill="black"/>
<path fill-rule="evenodd" clip-rule="evenodd" d="M20.8591 23.2236C20.6504 23.2236 20.4765 23.0661 20.4504 22.856C20.3548 22.0069 20.5374 21.4992 20.7113 21.044C20.9547 20.3874 21.1634 19.8272 20.3287 18.0589C20.2331 17.8488 20.32 17.6037 20.52 17.5075C20.7286 17.4112 20.9721 17.4987 21.0677 17.7C22.0589 19.7834 21.7633 20.5713 21.4763 21.3328C21.3199 21.753 21.1894 22.1119 21.259 22.7597C21.2851 22.9873 21.1286 23.1974 20.9025 23.2236C20.8938 23.2236 20.8765 23.2236 20.8591 23.2236Z" fill="black"/>
<path fill-rule="evenodd" clip-rule="evenodd" d="M20.772 13.4807C20.7459 13.4807 20.7285 13.4807 20.7025 13.472C15.173 12.5353 11.5388 10.2506 9.89563 6.66154C9.79999 6.45145 9.89563 6.20634 10.0956 6.11005C10.3043 6.01376 10.5477 6.1013 10.6433 6.31139C12.1648 9.62906 15.599 11.765 20.8416 12.6491C21.0676 12.6841 21.2154 12.903 21.1806 13.1306C21.1459 13.3319 20.972 13.4807 20.772 13.4807Z" fill="black"/>
<path fill-rule="evenodd" clip-rule="evenodd" d="M7.21792 13.4807C7.03535 13.4807 6.87016 13.3582 6.81799 13.1656C6.76583 12.9467 6.89624 12.7192 7.11359 12.6579C9.72184 11.9926 11.5302 10.9509 12.4692 9.5678C12.5996 9.37522 12.8517 9.33145 13.043 9.46276C13.2343 9.59406 13.2777 9.84792 13.1473 10.0405C12.0867 11.5987 10.1305 12.7454 7.31356 13.4632C7.28748 13.472 7.2527 13.4807 7.21792 13.4807Z" fill="black"/>
</svg>
