<svg width="53" height="40" viewBox="0 0 53 40" fill="none" xmlns="http://www.w3.org/2000/svg">
<path d="M3.14062 27.6568C3.14062 32.7309 7.2687 36.859 12.3428 36.859C17.4168 36.859 21.5449 32.7309 21.5449 27.6568C21.5449 22.5827 17.4168 18.4546 12.3428 18.4546C7.2687 18.4545 3.14062 22.5826 3.14062 27.6568ZM20.0252 27.6568C20.0252 31.8929 16.5789 35.3391 12.3429 35.3391C8.10694 35.3391 4.66046 31.8929 4.66046 27.6568C4.66046 23.4207 8.10683 19.9744 12.3428 19.9744C16.5788 19.9744 20.0252 23.4206 20.0252 27.6568Z" fill="white"/>
<path d="M50.276 21.3329C50.2742 21.3289 50.2729 21.3248 50.2709 21.3208L44.107 8.54197C43.2554 6.77623 41.8408 5.37555 40.1435 4.51289L39.5617 3.30655C38.5927 1.29784 36.5256 0 34.2955 0C31.0716 0 28.4488 2.62283 28.4488 5.8468V8.0918C27.9365 9.01028 27.5837 10.0291 27.4277 11.1109H24.5955C24.4395 10.0291 24.0867 9.01018 23.5743 8.09159V5.8468C23.5743 2.62293 20.9515 0 17.7276 0C15.4975 0 13.4305 1.29794 12.4614 3.30665L11.8796 4.51289C10.1823 5.37565 8.76772 6.77633 7.91611 8.54197L6.84847 10.7553C6.66609 11.1332 6.82476 11.5875 7.20269 11.7699C7.58073 11.9521 8.03496 11.7937 8.21734 11.4156L9.28497 9.20219C10.4952 6.69304 13.0774 5.07179 15.8631 5.07179C19.8903 5.07179 23.1666 8.34804 23.1666 12.3752V21.7236C22.4511 20.4194 21.4978 19.2397 20.3351 18.2509C20.0154 17.9789 19.5357 18.0178 19.264 18.3374C18.992 18.6571 19.0309 19.1367 19.3505 19.4086C21.7758 21.471 23.1666 24.4773 23.1666 27.6567C23.1666 33.6247 18.3113 38.4801 12.3433 38.4801C6.3753 38.4801 1.51983 33.6248 1.51983 27.6568C1.51983 21.6888 6.3752 16.8335 12.3432 16.8335C13.8945 16.8335 15.3919 17.1546 16.7938 17.7878C17.1758 17.9605 17.6263 17.7907 17.7992 17.4081C17.9719 17.0256 17.8019 16.5755 17.4195 16.4028C15.8196 15.6801 14.1118 15.3136 12.3432 15.3136C9.70718 15.3136 7.26187 16.1447 5.25447 17.5579L6.80683 14.3395C6.98921 13.9615 6.83054 13.5073 6.45261 13.3249C6.07478 13.1429 5.62035 13.3012 5.43797 13.6792L1.75206 21.3208C1.75014 21.3248 1.74882 21.3289 1.747 21.3329C0.638432 23.1836 0 25.3469 0 27.6568C0 34.4628 5.53706 40 12.3432 40C19.0635 40 24.5459 34.6014 24.6831 27.9135H27.34C27.4772 34.6014 32.9596 40 39.6798 40C46.4859 40 52.023 34.4628 52.023 27.6568C52.023 25.3469 51.3847 23.1836 50.276 21.3329ZM42.7381 9.20219L46.7684 17.5577C44.7611 16.1446 42.3158 15.3135 39.6798 15.3135C35.021 15.3135 30.9573 17.9083 28.8566 21.7283V12.3752C28.8566 8.34804 32.1328 5.07179 36.16 5.07179C38.9457 5.07179 41.5278 6.69314 42.7381 9.20219ZM27.3367 26.3936H24.6865V12.6306H27.3367V26.3936ZM34.2955 1.51983C35.8712 1.51983 37.335 2.39657 38.0886 3.76949C37.4619 3.62734 36.8157 3.55205 36.16 3.55205C33.7498 3.55205 31.5626 4.52384 29.9686 6.09565V5.8468C29.9685 3.46086 31.9096 1.51983 34.2955 1.51983ZM15.8631 3.55195C15.2074 3.55195 14.5612 3.62723 13.9345 3.76939C14.6882 2.39647 16.152 1.51973 17.7276 1.51973C20.1135 1.51973 22.0545 3.46076 22.0545 5.8467V6.09555C20.4605 4.52373 18.2733 3.55195 15.8631 3.55195ZM39.6798 38.4802C33.7118 38.4802 28.8566 33.6248 28.8566 27.6568C28.8566 21.6888 33.7118 16.8335 39.6798 16.8335C45.6478 16.8335 50.5032 21.6888 50.5032 27.6568C50.5032 33.6248 45.6478 38.4802 39.6798 38.4802Z" fill="white"/>
<path d="M43.1311 19.129C42.7422 18.9709 42.2988 19.1583 42.1411 19.547C41.983 19.9359 42.1703 20.3791 42.5591 20.537C45.4762 21.7219 47.3611 24.5167 47.3611 27.6569C47.3611 31.8929 43.9147 35.3392 39.6788 35.3392C35.4428 35.3392 31.9965 31.8929 31.9965 27.6569C31.9965 23.4292 35.4359 19.9831 39.6637 19.9749C40.0833 19.9741 40.4229 19.6332 40.4221 19.2135C40.4212 18.7943 40.0812 18.4551 39.6621 18.4551C39.6616 18.4551 39.6611 18.4551 39.6606 18.4551C34.5966 18.4649 30.4766 22.5929 30.4766 27.6569C30.4766 32.731 34.6046 36.859 39.6786 36.859C44.7528 36.859 48.8808 32.731 48.8808 27.6569C48.8809 23.8953 46.6241 20.5478 43.1311 19.129Z" fill="white"/>
</svg>
