<svg width="64" height="58" viewBox="0 0 64 58" fill="none" xmlns="http://www.w3.org/2000/svg">
<path d="M63.0342 46.6058L38.1886 3.57216C36.8972 1.33531 34.584 0 32.0013 0C29.4186 0 27.1055 1.33543 25.814 3.57216L0.968574 46.6058C-0.322858 48.8426 -0.322858 51.5134 0.968574 53.7502C2.26001 55.987 4.57298 57.3224 7.15585 57.3224H56.8469C59.4296 57.3224 61.7427 55.987 63.0342 53.7502C64.3255 51.5134 64.3255 48.8426 63.0342 46.6058ZM59.784 51.8737C59.1709 52.9354 58.073 53.5694 56.8469 53.5694H7.15585C5.92979 53.5694 4.83174 52.9354 4.21872 51.8737C3.60569 50.8119 3.60569 49.5439 4.21872 48.4821L29.0642 5.44849C29.6773 4.38669 30.7753 3.75279 32.0013 3.75279C33.2274 3.75279 34.3254 4.38669 34.9384 5.44849L59.784 48.4821C60.3971 49.5439 60.3971 50.8119 59.784 51.8737Z" fill="white"/>
<path d="M32.002 41.0597C30.6224 41.0597 29.5 42.1821 29.5 43.5617C29.5 44.9412 30.6224 46.0637 32.002 46.0637C33.3815 46.0637 34.504 44.9412 34.504 43.5617C34.504 42.1821 33.3815 41.0597 32.002 41.0597Z" fill="white"/>
<path d="M33.8779 17.9163H30.125V37.3065H33.8779V17.9163Z" fill="white"/>
</svg>
