<?xml version="1.0" encoding="UTF-8"?>
<!DOCTYPE svg PUBLIC "-//W3C//DTD SVG 1.1//EN" "http://www.w3.org/Graphics/SVG/1.1/DTD/svg11.dtd">
<!-- Creator: CorelDRAW -->
<svg xmlns="http://www.w3.org/2000/svg" xml:space="preserve" width="1.70666in" height="1.70666in" version="1.1" style="shape-rendering:geometricPrecision; text-rendering:geometricPrecision; image-rendering:optimizeQuality; fill-rule:evenodd; clip-rule:evenodd"
viewBox="0 0 1707 1707"
 xmlns:xlink="http://www.w3.org/1999/xlink">
 <defs>
  <style type="text/css">
   <![CDATA[
    .fil0 {fill:black}
   ]]>
  </style>
 </defs>
 <g id="Layer_x0020_1">
  <metadata id="CorelCorpID_0Corel-Layer"/>
  <g id="_470572656">
   <g>
    <g>
     <path class="fil0" d="M670 1420l-402 0c-148,0 -268,-120 -268,-267l0 -248c0,-11 9,-20 20,-20l898 0c11,0 20,9 20,20l0 248c0,147 -120,267 -268,267zm-630 -495l0 228c0,125 102,227 228,227l402 0c126,0 228,-102 228,-227l0 -228 -858 0z"/>
    </g>
    <g>
     <path class="fil0" d="M724 1544l-510 0c-12,0 -20,-9 -20,-20l0 -130c0,-6 2,-12 7,-15 5,-4 11,-6 17,-4 16,3 33,5 50,5l402 0c17,0 34,-2 50,-5 6,-2 12,0 17,4 5,3 7,9 7,15l0 130c0,11 -9,20 -20,20zm-490 -40l470 0 0 -86c-11,2 -22,2 -34,2l-402 0c-12,0 -23,0 -34,-2l0 86z"/>
    </g>
    <g>
     <path class="fil0" d="M1466 970c-10,0 -20,-2 -29,-7l-331 -191c-27,-16 -37,-52 -21,-80l19 -33c10,-18 30,-29 51,-29 10,0 20,3 29,8l330 191c28,16 37,51 21,79l-19 33c-10,18 -29,29 -50,29zm-311 -300c-7,0 -13,4 -16,9l-19 33c-5,9 -2,20 6,25l331 191c8,5 20,2 25,-7l19 -33c5,-8 2,-20 -7,-25l-330 -190c-3,-2 -6,-3 -9,-3z"/>
    </g>
    <g>
     <path class="fil0" d="M1479 851c-4,0 -7,-1 -10,-2l-280 -162c-9,-5 -13,-17 -7,-27l47 -83c21,-35 59,-57 101,-57 14,0 28,2 42,8l209 -332c13,-21 36,-33 59,-33 12,0 23,3 33,8 32,19 43,59 25,92l-182 348c43,35 56,98 28,148l-48 82c-4,7 -11,10 -17,10zm-253 -188l245 141 38 -65c21,-36 8,-83 -28,-103l-2 -1c-9,-6 -12,-18 -7,-27l191 -363c7,-15 3,-31 -10,-39 -13,-7 -30,-2 -38,11l-219 347c-6,9 -18,12 -27,7l-2 -1c-11,-7 -24,-10 -37,-10 -27,0 -53,14 -66,37l-38 66z"/>
    </g>
    <g>
     <path class="fil0" d="M1273 1137c-20,0 -39,-5 -55,-15l-141 -81c-25,-14 -44,-38 -51,-67 -8,-28 -4,-58 11,-84l79 -136c5,-10 17,-13 27,-7l297 171c10,6 13,18 8,28l-79 136c-20,34 -57,55 -96,55zm-133 -346l-69 119c-9,17 -11,36 -7,54 5,18 17,33 33,43l141 81c10,6 22,9 35,9 25,0 49,-13 61,-35l69 -119 -263 -152z"/>
    </g>
    <g>
     <path class="fil0" d="M1290 1007c-3,0 -6,-1 -10,-3 -9,-5 -12,-17 -7,-27l57 -99c6,-10 18,-13 28,-7 9,5 13,17 7,27l-57 99c-4,7 -11,10 -18,10z"/>
    </g>
    <g>
     <path class="fil0" d="M1224 969c-3,0 -7,-1 -10,-3 -9,-5 -13,-17 -7,-27l57 -99c6,-10 18,-13 28,-8 9,6 12,18 7,28l-57 99c-4,6 -11,10 -18,10z"/>
    </g>
    <g>
     <path class="fil0" d="M1158 931c-3,0 -7,-1 -10,-3 -9,-5 -13,-18 -7,-27l57 -99c6,-10 18,-13 27,-8 10,6 13,18 8,28l-57 99c-4,6 -11,10 -18,10z"/>
    </g>
   </g>
  </g>
 </g>
</svg>
