<svg width="812" height="511" viewBox="0 0 812 511" fill="none" xmlns="http://www.w3.org/2000/svg">
<path d="M572.695 238.036H567.336L565.857 239.501V244.86C565.857 246.535 564.512 247.885 562.836 247.885C561.184 247.885 559.831 246.536 559.831 244.86V239.501L558.438 238.036H553.021C551.344 238.036 549.996 236.687 549.996 235.021C549.996 233.357 551.345 231.998 553.021 231.998H558.438L559.831 230.526V225.183C559.831 223.507 561.185 222.157 562.836 222.157C564.513 222.157 565.857 223.506 565.857 225.183V230.526L567.336 231.998H572.695C574.347 231.998 575.701 233.357 575.701 235.021C575.701 236.687 574.348 238.036 572.695 238.036Z" fill="#F5F5F5"/>
<path d="M532.585 175.928C532.585 178.648 530.384 180.85 527.664 180.85C524.943 180.85 522.742 178.649 522.742 175.928C522.742 173.208 524.942 171.006 527.664 171.006C530.384 171.006 532.585 173.208 532.585 175.928Z" fill="#F5F5F5"/>
<path d="M275.411 482.899C275.411 485.62 273.21 487.821 270.49 487.821C267.769 487.821 265.568 485.62 265.568 482.899C265.568 480.179 267.768 477.977 270.49 477.977C273.21 477.977 275.411 480.179 275.411 482.899Z" fill="#F5F5F5"/>
<path d="M575.544 477.254C577.366 477.254 578.822 478.737 578.822 480.546C578.822 482.369 577.366 483.811 575.544 483.811H542.791C540.981 483.811 539.518 482.369 539.518 480.546C539.518 478.737 540.981 477.254 542.791 477.254H575.544Z" fill="#F5F5F5"/>
<path d="M528.757 477.254C530.561 477.254 532.036 478.737 532.036 480.546C532.036 482.369 530.56 483.811 528.757 483.811H522.75C520.941 483.811 519.479 482.369 519.479 480.546C519.479 478.737 520.941 477.254 522.75 477.254H528.757Z" fill="#F5F5F5"/>
<path d="M104.969 133.898C106.791 133.898 108.247 135.381 108.247 137.19C108.247 139.013 106.791 140.455 104.969 140.455H72.2164C70.4064 140.455 68.9434 139.013 68.9434 137.19C68.9434 135.381 70.4064 133.898 72.2164 133.898H104.969Z" fill="#F5F5F5"/>
<path d="M58.1804 133.898C59.9844 133.898 61.4604 135.381 61.4604 137.19C61.4604 139.013 59.9844 140.455 58.1804 140.455H52.1743C50.3653 140.455 48.9023 139.013 48.9023 137.19C48.9023 135.381 50.3653 133.898 52.1743 133.898H58.1804Z" fill="#F5F5F5"/>
<path d="M615.908 477.427C615.908 485.157 622.201 491.451 629.924 491.451C637.653 491.451 643.941 485.157 643.941 477.427C643.941 469.704 637.654 463.404 629.924 463.404C622.201 463.404 615.908 469.704 615.908 477.427ZM621.589 477.427C621.589 472.83 625.327 469.084 629.925 469.084C634.528 469.084 638.261 472.83 638.261 477.427C638.261 482.031 634.528 485.763 629.925 485.763C625.327 485.763 621.589 482.031 621.589 477.427Z" fill="#F5F5F5"/>
<path d="M684.305 103.977C684.305 111.707 690.598 118.001 698.321 118.001C706.05 118.001 712.338 111.707 712.338 103.977C712.338 96.254 706.051 89.954 698.321 89.954C690.599 89.954 684.305 96.253 684.305 103.977ZM689.986 103.977C689.986 99.38 693.724 95.634 698.322 95.634C702.925 95.634 706.658 99.38 706.658 103.977C706.658 108.581 702.925 112.313 698.322 112.313C693.724 112.313 689.986 108.581 689.986 103.977Z" fill="#F5F5F5"/>
<path d="M526.094 326.296C526.094 384.568 516.913 427.7 498.56 455.694C480.199 483.691 451.933 497.682 413.757 497.682C376.748 497.682 348.846 483.232 330.052 454.324C311.254 425.42 301.859 382.743 301.859 326.296C301.859 267.416 310.998 224.019 329.282 196.098C347.567 168.181 375.725 154.221 413.756 154.221C450.762 154.221 478.736 168.824 497.679 198.039C516.622 227.249 526.094 270.003 526.094 326.296ZM361.626 326.296C361.626 367.224 365.606 396.55 373.563 414.272C381.524 431.998 394.911 440.861 413.737 440.861C432.219 440.861 445.57 431.883 453.782 413.931C461.998 395.979 466.103 366.769 466.103 326.296C466.103 285.368 461.953 255.97 453.656 238.091C445.351 220.216 432.049 211.272 413.737 211.272C395.085 211.272 381.734 220.215 373.692 238.091C365.647 255.97 361.626 285.368 361.626 326.296Z" fill="#F5F5F5"/>
<path d="M210.48 505.34C194.048 505.34 180.724 492.016 180.724 475.584V432.609H66.0912C49.6482 432.609 34.8862 423.461 27.5572 408.743C20.4172 394.407 21.7612 377.621 31.0032 364.634L161.704 165.295C162.069 164.739 162.451 164.197 162.849 163.669C174.016 148.896 193.308 142.912 210.879 148.81C228.44 154.698 240.237 171.097 240.237 189.617V373.096H253.489C269.921 373.096 283.245 386.42 283.245 402.852C283.245 419.284 269.921 432.608 253.489 432.608H240.237V475.583C240.237 492.016 226.913 505.34 210.48 505.34ZM96.6102 373.096H180.724V244.809L96.6102 373.096Z" fill="#F5F5F5"/>
<path d="M739.07 505.34C722.638 505.34 709.314 492.016 709.314 475.584V432.609H594.681C578.238 432.609 563.476 423.461 556.147 408.743C549.007 394.407 550.351 377.621 559.593 364.634L690.294 165.295C690.659 164.739 691.041 164.197 691.439 163.669C702.606 148.896 721.898 142.912 739.469 148.81C757.03 154.698 768.827 171.097 768.827 189.617V373.096H782.079C798.511 373.096 811.835 386.42 811.835 402.852C811.835 419.284 798.511 432.608 782.079 432.608H768.827V475.583C768.827 492.016 755.503 505.34 739.07 505.34ZM625.2 373.096H709.314V244.809L625.2 373.096Z" fill="#F5F5F5"/>
<path d="M193.012 510.897C173.538 510.897 157.697 495.055 157.697 475.582C157.697 472.509 160.186 470.023 163.256 470.023C166.326 470.023 168.815 472.51 168.815 475.582C168.815 488.926 179.67 499.779 193.012 499.779C206.354 499.779 217.209 488.927 217.209 475.582V432.606C217.209 429.533 219.698 427.047 222.768 427.047H236.02C249.362 427.047 260.217 416.195 260.217 402.85C260.217 389.506 249.362 378.653 236.02 378.653H222.768C219.698 378.653 217.209 376.167 217.209 373.094V239.782C217.209 236.712 219.698 234.223 222.768 234.223C225.838 234.223 228.327 236.712 228.327 239.782V367.536H236.02C255.494 367.536 271.335 383.378 271.335 402.851C271.335 422.325 255.493 438.166 236.02 438.166H228.327V475.582C228.327 495.056 212.485 510.897 193.012 510.897ZM163.255 455.435C160.185 455.435 157.696 452.949 157.696 449.876V438.166H48.6206C30.0596 438.166 13.3866 427.84 5.11062 411.217C-2.90238 395.131 -1.40938 376.048 9.00362 361.407C10.7816 358.915 14.2476 358.313 16.7556 360.104C19.2586 361.879 19.8416 365.354 18.0636 367.856C10.0346 379.143 8.88363 393.861 15.0616 406.26C21.4456 419.083 34.3046 427.047 48.6206 427.047H163.256C166.326 427.047 168.815 429.533 168.815 432.606V449.876C168.815 452.949 166.326 455.435 163.255 455.435ZM163.255 378.654H79.1386C77.0976 378.654 75.2186 377.536 74.2476 375.739C73.2756 373.942 73.3706 371.754 74.4896 370.049L132.468 281.623C134.154 279.055 137.607 278.338 140.166 280.021C142.734 281.707 143.451 285.151 141.768 287.719L89.4326 367.535H157.696V358.843C157.696 355.773 160.185 353.284 163.255 353.284C166.325 353.284 168.814 355.773 168.814 358.843V373.094C168.815 376.167 166.326 378.654 163.255 378.654ZM28.5636 347.261C27.5186 347.261 26.4596 346.968 25.5206 346.352C22.9526 344.666 22.2366 341.222 23.9186 338.654L139.585 162.246C140.011 161.597 140.462 160.959 140.929 160.338C153.562 143.631 175.362 136.893 195.18 143.538C215.004 150.186 228.326 168.704 228.326 189.616V211.986C228.326 215.056 225.837 217.545 222.767 217.545C219.697 217.545 217.208 215.056 217.208 211.986V189.616C217.208 173.489 206.934 159.208 191.643 154.081C176.347 148.945 159.542 154.149 149.813 167.021C149.501 167.436 149.186 167.879 148.887 168.338L33.2186 344.75C32.1516 346.379 30.3736 347.261 28.5636 347.261ZM163.255 334.522C160.185 334.522 157.696 332.033 157.696 328.963V263.428L155.201 267.234C153.521 269.805 150.073 270.521 147.503 268.835C144.935 267.152 144.218 263.705 145.901 261.137L158.605 241.761C159.954 239.706 162.487 238.775 164.846 239.484C167.199 240.187 168.815 242.353 168.815 244.81V328.964C168.815 332.033 166.326 334.522 163.255 334.522Z" fill="#222222"/>
<path d="M720.078 510.897C700.604 510.897 684.763 495.055 684.763 475.582V438.166H672.054C668.981 438.166 666.495 435.679 666.495 432.607C666.495 429.534 668.981 427.048 672.054 427.048H690.322C693.395 427.048 695.881 429.534 695.881 432.607V475.583C695.881 488.927 706.733 499.78 720.078 499.78C733.423 499.78 744.275 488.928 744.275 475.583V432.607C744.275 429.534 746.761 427.048 749.834 427.048H763.086C776.43 427.048 787.283 416.196 787.283 402.851C787.283 389.507 776.43 378.654 763.086 378.654H749.834C746.761 378.654 744.275 376.168 744.275 373.095V352.59C744.275 349.52 746.761 347.031 749.834 347.031C752.907 347.031 755.393 349.52 755.393 352.59V367.536H763.086C782.56 367.536 798.401 383.378 798.401 402.851C798.401 422.325 782.559 438.166 763.086 438.166H755.393V475.582C755.393 495.056 739.552 510.897 720.078 510.897ZM641.711 438.166H575.69C557.128 438.166 540.456 427.84 532.177 411.217C524.164 395.131 525.657 376.043 536.075 361.407L610.766 247.486C612.449 244.918 615.902 244.201 618.459 245.884C621.027 247.57 621.743 251.014 620.061 253.582L545.25 367.676C537.101 379.137 535.95 393.854 542.134 406.259C548.518 419.082 561.374 427.046 575.69 427.046H641.711C644.784 427.046 647.27 429.532 647.27 432.605C647.271 435.679 644.784 438.166 641.711 438.166ZM690.322 378.654H606.206C604.165 378.654 602.286 377.536 601.315 375.733C600.343 373.936 600.435 371.754 601.559 370.043L611.679 354.622C613.356 352.057 616.82 351.335 619.377 353.023C621.945 354.706 622.656 358.153 620.973 360.721L616.505 367.534H684.763V299.081C684.763 296.011 687.25 293.522 690.322 293.522C693.394 293.522 695.881 296.011 695.881 299.081V373.094C695.881 376.167 693.395 378.654 690.322 378.654ZM632.488 338.569C631.44 338.569 630.387 338.276 629.448 337.66C626.88 335.977 626.164 332.53 627.846 329.962L685.675 241.761C687.016 239.703 689.562 238.783 691.913 239.484C694.269 240.187 695.882 242.353 695.882 244.81V268.507C695.882 271.577 693.396 274.066 690.323 274.066C687.25 274.066 684.764 271.577 684.764 268.507V263.428L637.141 336.059C636.076 337.687 634.301 338.569 632.488 338.569ZM749.834 324.793C746.761 324.793 744.275 322.304 744.275 319.234V189.616C744.275 173.487 733.998 159.206 718.71 154.081C703.389 148.934 686.609 154.151 676.88 167.021C676.56 167.445 676.239 167.901 675.93 168.367L637.819 226.494C636.142 229.067 632.694 229.784 630.126 228.096C627.558 226.413 626.842 222.966 628.524 220.398L666.651 162.246C667.096 161.575 667.536 160.951 667.992 160.338C680.631 143.631 702.422 136.882 722.243 143.541C742.07 150.186 755.392 168.704 755.392 189.616V319.234C755.393 322.304 752.907 324.793 749.834 324.793Z" fill="#222222"/>
<path d="M398.935 503.242C360.094 503.242 330.362 487.802 310.568 457.351C308.893 454.778 309.623 451.336 312.199 449.658C314.767 447.986 318.214 448.713 319.889 451.292C337.75 478.768 363.606 492.123 398.934 492.123C435.449 492.123 461.665 479.208 479.087 452.644C496.753 425.7 505.711 383.186 505.711 326.296C505.711 286.95 500.955 253.996 491.569 228.35C490.516 225.465 491.998 222.272 494.881 221.219C497.753 220.16 500.961 221.645 502.015 224.528C511.847 251.404 516.831 285.644 516.831 326.296C516.831 385.39 507.26 429.951 488.383 458.74C469.022 488.27 438.924 503.242 398.935 503.242ZM398.916 446.418C377.792 446.418 362.569 436.369 353.671 416.548C345.308 397.921 341.244 368.399 341.244 326.297C341.244 305.097 342.335 286.677 344.485 271.549C344.919 268.512 347.761 266.408 350.772 266.826C353.812 267.26 355.927 270.075 355.495 273.113C353.416 287.725 352.363 305.619 352.363 326.298C352.363 366.233 356.215 395.072 363.813 411.999C370.854 427.678 382.336 435.3 398.917 435.3C415.174 435.3 426.618 427.553 433.909 411.619C435.185 408.834 438.469 407.596 441.276 408.877C444.066 410.153 445.293 413.454 444.018 416.244C434.858 436.266 419.684 446.418 398.916 446.418ZM299.873 427.313C297.547 427.313 295.381 425.847 294.602 423.518C285.894 397.524 281.477 364.81 281.477 326.297C281.477 266.587 291.01 221.755 309.811 193.052C329.103 163.597 359.089 148.662 398.935 148.662C437.774 148.662 467.578 164.257 487.519 195.014C489.191 197.59 488.458 201.032 485.88 202.701C483.312 204.379 479.859 203.638 478.193 201.062C460.18 173.285 434.257 159.78 398.936 159.78C362.573 159.78 336.462 172.655 319.112 199.142C301.52 226.004 292.597 268.787 292.597 326.296C292.597 363.609 296.818 395.13 305.146 419.989C306.12 422.899 304.551 426.048 301.642 427.025C301.054 427.221 300.457 427.313 299.873 427.313ZM448.767 379.859C448.544 379.859 448.316 379.848 448.088 379.815C445.037 379.446 442.871 376.672 443.245 373.626C444.885 360.2 445.721 344.274 445.721 326.297C445.721 286.375 441.709 257.485 433.788 240.43C426.416 224.55 415.009 216.83 398.915 216.83C382.506 216.83 371.064 224.531 363.939 240.37C362.677 243.169 359.379 244.404 356.588 243.16C353.787 241.9 352.538 238.608 353.797 235.809C362.785 215.836 377.964 205.711 398.914 205.711C419.492 205.711 434.617 215.817 443.874 235.746C452.598 254.541 456.838 284.159 456.838 326.295C456.838 344.723 455.975 361.1 454.275 374.971C453.935 377.796 451.536 379.859 448.767 379.859Z" fill="#222222"/>
<path d="M661.935 69.918C654.903 18.54 600.003 -5.36897 529.927 1.74803C467.636 8.07503 436.657 39.933 436.658 78.258C436.658 125.41 487.475 147.651 550.16 147.651C570.197 147.651 588.998 144.809 605.332 139.255C608.548 138.161 611.882 140.809 611.03 143.811C606.521 159.701 595.098 173.821 588.222 181.255C586.65 182.954 588.555 185.486 590.875 184.764C621.04 175.386 644.695 149.592 656.958 113.622C661.963 98.943 663.117 78.56 661.935 69.918Z" fill="#222222"/>
<path d="M511.401 72.068C511.401 78.872 509.765 84.16 506.499 87.932C503.228 91.704 498.599 93.591 492.607 93.591C486.543 93.591 481.884 91.719 478.632 87.976C475.38 84.231 473.754 78.909 473.754 72.012C473.754 65.115 475.39 59.817 478.661 56.118C481.928 52.422 486.596 50.574 492.66 50.574C498.632 50.574 503.251 52.452 506.508 56.206C509.77 59.959 511.401 65.247 511.401 72.068ZM480.732 72.068C480.732 77.214 481.733 81.116 483.73 83.774C485.727 86.43 488.686 87.761 492.607 87.761C496.508 87.761 499.453 86.445 501.44 83.816C503.427 81.187 504.423 77.271 504.423 72.068C504.423 66.944 503.437 63.057 501.469 60.408C499.496 57.759 496.562 56.433 492.66 56.433C488.72 56.433 485.751 57.759 483.744 60.408C481.738 63.057 480.732 66.944 480.732 72.068Z" fill="white"/>
<path d="M546.298 77.1561C546.298 82.3221 545.028 86.3501 542.48 89.2481C539.936 92.1431 536.391 93.5911 531.845 93.5911C529.008 93.5911 526.498 92.9251 524.316 91.5921C522.138 90.2571 520.459 88.3431 519.287 85.8451C518.115 83.3501 517.529 80.4541 517.529 77.1561C517.529 72.0311 518.794 68.0301 521.323 65.1521C523.847 62.2761 527.412 60.8361 532.011 60.8361C536.406 60.8361 539.887 62.3081 542.455 65.2521C545.019 68.1961 546.298 72.1641 546.298 77.1561ZM524.179 77.1561C524.179 84.4561 526.772 88.1031 531.957 88.1031C537.084 88.1031 539.652 84.4561 539.652 77.1561C539.652 69.9341 537.069 66.3231 531.898 66.3231C529.188 66.3231 527.225 67.2581 526.005 69.1231C524.789 70.9921 524.179 73.6701 524.179 77.1561Z" fill="white"/>
<path d="M569.141 93.592C565.293 93.592 562.305 92.154 560.181 89.276H559.795C560.054 91.945 560.181 93.563 560.181 94.137V107.084H553.721V61.408H558.946C559.092 61.999 559.395 63.41 559.854 65.639H560.181C562.198 62.438 565.22 60.837 569.248 60.837C573.042 60.837 575.996 62.268 578.11 65.124C580.229 67.983 581.284 71.994 581.284 77.158C581.284 82.324 580.21 86.352 578.056 89.25C575.903 92.144 572.93 93.592 569.141 93.592ZM567.573 66.324C565.01 66.324 563.135 67.105 561.953 68.668C560.771 70.23 560.181 72.728 560.181 76.158V77.157C560.181 81.007 560.767 83.793 561.939 85.519C563.111 87.243 565.025 88.104 567.681 88.104C569.917 88.104 571.641 87.152 572.852 85.248C574.058 83.341 574.664 80.626 574.664 77.101C574.664 73.556 574.063 70.875 572.862 69.054C571.665 67.234 569.897 66.324 567.573 66.324Z" fill="white"/>
<path d="M609.203 84.017C609.203 87.105 608.124 89.471 605.961 91.119C603.798 92.769 600.702 93.592 596.674 93.592C592.621 93.592 589.374 92.955 586.918 91.678V85.875C590.487 87.591 593.813 88.448 596.894 88.448C600.869 88.448 602.856 87.2 602.856 84.703C602.856 83.902 602.636 83.236 602.197 82.703C601.757 82.168 601.035 81.617 600.024 81.045C599.018 80.471 597.617 79.824 595.82 79.099C592.324 77.69 589.956 76.279 588.716 74.87C587.481 73.459 586.865 71.63 586.865 69.382C586.865 66.677 587.91 64.575 590.01 63.078C592.11 61.584 594.961 60.834 598.57 60.834C602.144 60.834 605.523 61.588 608.712 63.092L606.622 68.151C603.341 66.742 600.587 66.037 598.351 66.037C594.943 66.037 593.239 67.048 593.239 69.067C593.239 70.058 593.683 70.896 594.572 71.582C595.461 72.268 597.399 73.213 600.383 74.412C602.893 75.423 604.719 76.348 605.852 77.185C606.99 78.025 607.834 78.9921 608.381 80.0851C608.93 81.1821 609.203 82.493 609.203 84.017Z" fill="white"/>
<path d="M615.225 89.449C615.225 88.038 615.582 86.966 616.294 86.231C617.007 85.499 618.027 85.132 619.346 85.132C620.645 85.132 621.646 85.513 622.339 86.275C623.037 87.037 623.384 88.094 623.384 89.449C623.384 90.801 623.032 91.873 622.324 92.664C621.621 93.453 620.625 93.85 619.345 93.85C618.041 93.85 617.031 93.467 616.308 92.705C615.586 91.944 615.225 90.857 615.225 89.449ZM621.763 80.33H616.983L615.552 51.231H623.164L621.763 80.33Z" fill="white"/>
<path d="M321.482 87.237C308.253 70.187 311.331 45.559 328.349 32.339C345.38 19.086 370.028 22.167 383.245 39.228C396.489 56.247 393.4 80.872 376.368 94.114C359.352 107.335 334.704 104.254 321.482 87.237Z" fill="#F5F5F5"/>
<path d="M331.032 83.054C330.064 83.054 329.107 82.624 328.469 81.799C318.234 68.608 320.619 49.556 333.785 39.328C335.199 38.23 337.235 38.486 338.335 39.899C339.434 41.313 339.177 43.35 337.764 44.449C327.42 52.484 325.548 67.458 333.592 77.825C334.69 79.239 334.433 81.276 333.018 82.373C332.426 82.833 331.726 83.054 331.032 83.054Z" fill="#222222"/>
<path d="M345.375 40.356C343.942 40.356 342.631 39.398 342.244 37.948C341.784 36.217 342.813 34.441 344.543 33.98C346.944 33.342 349.425 33 351.92 32.965C353.687 32.973 355.182 34.371 355.207 36.162C355.232 37.953 353.8 39.424 352.01 39.449C350.047 39.475 348.097 39.744 346.212 40.247C345.932 40.32 345.652 40.356 345.375 40.356Z" fill="#222222"/>
<path d="M388.95 90.596C404.09 70.654 400.185 42.077 380.24 26.919C360.296 11.769 331.72 15.675 316.583 35.636C302.52 54.179 304.921 80.123 321.324 95.833L297.533 127.18L305.878 133.501L329.676 102.202C349.23 113.784 374.874 109.112 388.95 90.596ZM331.648 90.9341C316.313 79.2681 313.303 57.314 324.943 41.993C336.587 26.642 358.559 23.63 373.887 35.307C389.228 46.943 392.227 68.897 380.58 84.239C368.942 99.561 346.969 102.573 331.648 90.9341Z" fill="#222222"/>
<path d="M277.455 179.723C273.949 184.362 267.319 185.26 262.67 181.74C258.034 178.203 257.139 171.597 260.643 166.949L291.817 125.912C295.339 121.277 301.951 120.374 306.604 123.91C311.235 127.417 312.145 134.061 308.62 138.678L277.455 179.723Z" fill="#222222"/>
<path d="M266.881 87.185L254.629 74.933L266.881 62.68L257.208 53.008L244.956 65.26L232.704 53.007L223.031 62.68L235.283 74.933L223.031 87.185L232.704 96.858L244.956 84.605L257.208 96.858L266.881 87.185Z" fill="#222222" fill-opacity="0.11"/>
<path d="M212.162 87.185L199.91 74.933L212.162 62.68L202.49 53.008L190.237 65.26L177.985 53.007L168.312 62.68L180.564 74.933L168.312 87.185L177.985 96.858L190.237 84.605L202.49 96.858L212.162 87.185Z" fill="#222222" fill-opacity="0.11"/>
<path d="M157.446 87.185L145.194 74.933L157.446 62.68L147.773 53.008L135.521 65.26L123.268 53.007L113.596 62.68L125.848 74.933L113.596 87.185L123.268 96.858L135.521 84.605L147.773 96.858L157.446 87.185Z" fill="#222222" fill-opacity="0.11"/>
</svg>
