<svg width="32" height="29" viewBox="0 0 32 29" fill="none" xmlns="http://www.w3.org/2000/svg">
<path d="M5 11.7692C5 13.7261 5.69739 15.5984 6.97996 17.1282H5.65972C5.36826 17.1282 5.13194 17.3463 5.13194 17.6154V17.7372C5.13194 20.0877 7.2036 22 9.75 22H19.25C21.7964 22 23.8681 20.0877 23.8681 17.7372V17.6154C23.8681 17.3463 23.6317 17.1282 23.3403 17.1282H22.0199C23.3027 15.5987 24 13.7281 24 11.7692C24 6.93385 19.7383 3 14.5 3C9.26167 3 5 6.93385 5 11.7692ZM22.7907 18.1026C22.5931 19.7445 21.0805 21.0256 19.25 21.0256H9.75C7.91947 21.0256 6.40692 19.7445 6.20934 18.1026H11.8611V18.5897C11.8611 19.3956 12.5714 20.0513 13.4444 20.0513H15.5556C16.4286 20.0513 17.1389 19.3956 17.1389 18.5897L17.1476 18.1039C17.149 18.1024 22.7907 18.1026 22.7907 18.1026ZM17.9296 6.85657C18.2645 7.0565 18.5779 7.28468 18.8656 7.53765L9.91203 15.8025C9.63679 15.5358 9.39045 15.246 9.17518 14.9375L17.9296 6.85657ZM8.65994 14.0352C8.34031 13.3317 8.16667 12.5644 8.16667 11.7692C8.16667 8.54562 11.0078 5.92308 14.5 5.92308C15.3694 5.92308 16.1985 6.08573 16.9534 6.37963L8.65994 14.0352ZM19.5681 8.26714C20.1398 8.97032 20.5437 9.79585 20.7253 10.6928L13.7536 17.1282H11.9669C11.5121 16.9449 11.0894 16.7165 10.7033 16.4501L19.5681 8.26714ZM15.2464 17.1282L20.829 11.9751C20.7427 14.2184 19.2525 16.2326 17.0324 17.1282H15.2464ZM16.0833 18.1026V18.5897C16.0833 18.8584 15.8466 19.0769 15.5556 19.0769H13.4444C13.1534 19.0769 12.9167 18.8584 12.9167 18.5897V18.1026H16.0833ZM14.5 3.97436C19.1563 3.97436 22.9444 7.47109 22.9444 11.7692C22.9444 13.774 22.1232 15.6746 20.6316 17.1282H19.067C20.8112 15.8555 21.8889 13.8886 21.8889 11.7692C21.8889 8.00839 18.5742 4.94872 14.5 4.94872C10.4258 4.94872 7.11111 8.00839 7.11111 11.7692C7.11111 13.897 8.17386 15.8555 9.92628 17.1282H8.36782C6.87671 15.6749 6.05556 13.7718 6.05556 11.7692C6.05556 7.47109 9.84375 3.97436 14.5 3.97436Z" fill="black"/>
<path d="M31.4746 16.3284L31.4508 8.42402C31.4508 8.41952 31.4502 8.41509 31.4501 8.41065C31.4483 8.16756 31.3709 7.86188 31.1487 7.48644C30.8613 7.00089 30.3836 6.48874 29.8037 6.04437C29.2237 5.6 28.5984 5.26701 28.0431 5.10679C27.082 4.82961 26.6362 5.15462 26.4562 5.37319C26.3575 5.49312 26.2446 5.69579 26.2449 5.99292C26.2448 5.99679 26.2442 6.00053 26.2442 6.00439L26.2203 16.3284C25.9302 16.3284 25.6949 16.5554 25.6949 16.8353V23.6626H12.5415L8.05178 23.5115L7.66231 23.2861C6.01129 22.3305 4.01679 22.1193 2.19022 22.7066C1.47833 22.9356 1 23.5757 1 24.2996V27.0803C1 27.8042 1.47833 28.4443 2.19028 28.6733C2.87064 28.892 3.57405 29 4.27464 29C5.4548 29 6.6263 28.6934 7.66231 28.0938L8.05178 27.8684L12.5415 27.7173H26.7458C27.6201 27.7173 28.3712 27.1995 28.6874 26.4652H31.4746C31.7647 26.4652 32 26.2383 32 25.9584V16.8353C32 16.5554 31.7647 16.3284 31.4746 16.3284ZM7.3724 24.5129L5.10435 24.0753C4.81963 24.0205 4.543 24.1984 4.48606 24.473C4.42918 24.7475 4.61367 25.0144 4.89818 25.0694L7.3724 25.5467V25.8333L4.89818 26.3107C4.61367 26.3656 4.42911 26.6326 4.48606 26.9071C4.53604 27.148 4.7554 27.3146 5.00071 27.3146C5.03493 27.3146 7.3724 26.8671 7.3724 26.8671V27.0795L7.12165 27.2247C5.73407 28.0278 4.0577 28.2053 2.52261 27.7117C2.24046 27.621 2.05085 27.3672 2.05085 27.0804V24.2997C2.05085 24.0128 2.24046 23.7591 2.52261 23.6684C3.0944 23.4845 3.6857 23.3938 4.27451 23.3938C5.26644 23.3938 6.25095 23.6514 7.12171 24.1554L7.37247 24.3005L7.3724 24.5129ZM12.007 26.721L10.7383 26.7637C10.7151 26.5044 10.4899 26.3008 10.2151 26.3008C9.928 26.3008 9.69497 26.5231 9.69018 26.799L8.42332 26.8416V24.5384L9.68972 24.581V25.1312C9.68972 25.4111 9.92498 25.638 10.2151 25.638C10.5053 25.638 10.7406 25.4111 10.7406 25.1312V24.6164L12.007 24.659V26.721ZM27.2951 6.0151C27.5179 5.98215 28.2558 6.15296 29.15 6.83807C30.045 7.52401 30.3847 8.18017 30.4007 8.39564C30.1794 8.42934 29.4401 8.25867 28.5449 7.57273C27.6572 6.89249 27.3164 6.24229 27.295 6.02124L27.2951 6.0151ZM27.2901 7.84623C27.4733 8.02578 27.6752 8.20082 27.8913 8.3665C28.4713 8.81086 29.0965 9.14385 29.6518 9.30408C29.9158 9.38023 30.1407 9.41096 30.3321 9.41096C30.3567 9.41096 30.3801 9.41001 30.4036 9.40906L30.4218 14.3011H27.2726L27.2901 7.84623ZM27.2712 15.3148H30.4237V16.3284H27.2712V15.3148ZM26.7458 26.7036H13.0578V24.6763H26.7458C27.3252 24.6763 27.7966 25.131 27.7966 25.6899C27.7966 26.2488 27.3252 26.7036 26.7458 26.7036ZM30.9492 25.4515H28.8324C28.7096 24.4456 27.8209 23.6626 26.7458 23.6626V17.3421H30.9492V25.4515Z" fill="black"/>
<path d="M0.378798 6.76118L0.461795 6.78424C1.21795 6.99424 1.80512 7.64674 1.99424 8.48694L2.01499 8.57917C2.07061 8.82646 2.2706 9 2.50003 9C2.72946 9 2.92945 8.82646 2.98508 8.57917L3.00582 8.48694C3.19488 7.64674 3.78211 6.99424 4.53827 6.78424L4.62126 6.76118C4.84388 6.69931 5 6.47715 5 6.22222C5 5.96729 4.84388 5.74507 4.62126 5.68326C3.83579 5.46507 3.22563 4.7541 3.06688 3.87194L2.99033 3.4466C2.94351 3.18694 2.73827 3 2.49997 3C2.26167 3 2.05642 3.18694 2.00967 3.44667L1.93312 3.87194C1.77437 4.7541 1.16421 5.46507 0.378736 5.68326C0.156119 5.74514 0 5.96729 0 6.22222C0 6.47715 0.156182 6.69938 0.378798 6.76118ZM2.49997 5.24181C2.71052 5.61431 2.98339 5.93972 3.30256 6.19944C2.9887 6.43625 2.71665 6.73507 2.49997 7.0809C2.28329 6.73507 2.0113 6.43625 1.69737 6.19944C2.01655 5.93972 2.28941 5.61431 2.49997 5.24181Z" fill="black"/>
<path d="M4.37874 3.13432L4.46174 3.15353C5.21791 3.32853 5.80508 3.87228 5.9942 4.57245L6.01495 4.64931C6.07057 4.85538 6.27057 5 6.5 5C6.72943 5 6.92943 4.85538 6.98505 4.64931L7.0058 4.57245C7.19486 3.87228 7.78209 3.32853 8.53826 3.15353L8.62126 3.13432C8.84388 3.08275 9 2.89763 9 2.68519C9 2.47274 8.84388 2.28756 8.62126 2.23605C7.83578 2.05422 7.22561 1.46175 7.06686 0.72662L6.9903 0.372164C6.94349 0.155787 6.73824 0 6.49994 0C6.26163 0 6.05639 0.155787 6.00964 0.372222L5.93308 0.72662C5.77433 1.46175 5.16416 2.05422 4.37868 2.23605C4.15612 2.28756 4 2.47274 4 2.68519C4 2.89763 4.15612 3.08281 4.37874 3.13432ZM6.49994 1.86817C6.71049 2.17859 6.98336 2.44977 7.30254 2.6662C6.98868 2.86354 6.71662 3.11256 6.49994 3.40075C6.28326 3.11256 6.01126 2.86354 5.69733 2.6662C6.01651 2.44977 6.28938 2.17859 6.49994 1.86817Z" fill="black"/>
</svg>
