<svg width="44" height="44" viewBox="0 0 44 44" fill="none" xmlns="http://www.w3.org/2000/svg">
<path d="M22.0001 43.875C25.7681 43.875 29.4721 42.9018 32.7534 41.0495C36.0346 39.1973 38.7818 36.5289 40.7287 33.303C42.6756 30.077 43.7562 26.4028 43.8659 22.6365C43.9755 18.8701 43.1104 15.1393 41.3544 11.8056C41.2564 11.6242 41.0906 11.4889 40.8933 11.4291C40.6959 11.3694 40.4829 11.3902 40.3008 11.4868C40.1186 11.5835 39.9821 11.7482 39.9209 11.9451C39.8597 12.1421 39.8789 12.3552 39.9742 12.538C41.5122 15.4547 42.315 18.7027 42.3126 22C41.1993 48.9431 2.8007 48.9433 1.68763 21.9998C1.49949 6.93608 18.2503 -3.16067 31.4622 4.02618C31.6453 4.12329 31.8594 4.1437 32.0575 4.08292C32.2557 4.02214 32.4215 3.88515 32.5186 3.70209C32.6157 3.51903 32.6361 3.30489 32.5754 3.10678C32.5146 2.90867 32.3776 2.74282 32.1945 2.64571C29.0523 0.988117 25.5528 0.122823 22.0001 0.125004C-7.01583 1.32388 -7.0155 42.6767 22.0001 43.875Z" fill="white"/>
<path d="M22.0006 15.7501C22.6771 15.7497 23.3489 15.862 23.9884 16.0824C24.1843 16.1498 24.399 16.1367 24.5852 16.0459C24.7714 15.9552 24.9139 15.7941 24.9814 15.5983C25.3246 14.2162 22.8914 14.2714 22.0007 14.1875C11.6376 14.6158 11.638 29.3848 22.0007 29.8126C24.072 29.8103 26.0577 28.9865 27.5224 27.5218C28.987 26.0572 29.8108 24.0714 29.8131 22.0001C29.7333 21.0932 29.7861 18.6853 28.4102 19.0273C28.3131 19.0606 28.2236 19.1128 28.1468 19.1807C28.0699 19.2487 28.0072 19.3312 27.9622 19.4234C27.9173 19.5156 27.8909 19.6158 27.8847 19.7182C27.8785 19.8207 27.8925 19.9233 27.926 20.0203C28.1434 20.6576 28.2531 21.3267 28.2506 22.0001C27.9373 30.2788 16.0638 30.2791 15.7506 22C15.7525 20.343 16.4116 18.7544 17.5833 17.5828C18.755 16.4111 20.3436 15.752 22.0006 15.7501Z" fill="white"/>
<path d="M29.4796 10.0741C29.5294 9.98439 29.561 9.88575 29.5726 9.78382C29.5842 9.68189 29.5757 9.57866 29.5474 9.48004C29.5191 9.38142 29.4717 9.28933 29.4078 9.20904C29.344 9.12875 29.2649 9.06183 29.1752 9.0121C26.9788 7.79635 24.5098 7.1578 21.9993 7.15625C2.30997 7.97002 2.31022 36.0304 21.9995 36.8438C24.5816 36.8453 27.1194 36.1728 29.362 34.8928C31.6045 33.6128 33.4742 31.7696 34.786 29.5455C36.0978 27.3214 36.8064 24.7935 36.8417 22.2116C36.877 19.6297 36.2378 17.0833 34.9872 14.8241C34.9377 14.734 34.8709 14.6545 34.7906 14.5903C34.7103 14.526 34.6181 14.4782 34.5193 14.4497C34.4205 14.4212 34.317 14.4124 34.2148 14.424C34.1126 14.4355 34.0137 14.4672 33.9237 14.517C33.8338 14.5669 33.7546 14.634 33.6906 14.7146C33.6267 14.7952 33.5793 14.8876 33.5512 14.9865C33.523 15.0854 33.5147 15.1889 33.5266 15.2911C33.5386 15.3932 33.5706 15.492 33.6208 15.5817C38.5728 24.1699 31.9205 35.4532 21.9991 35.2811C18.478 35.2772 15.1022 33.8767 12.6123 31.3868C10.1225 28.897 8.722 25.5212 8.7181 22C8.54793 12.0789 19.8283 5.42584 28.4177 10.3787C28.5074 10.4287 28.606 10.4604 28.708 10.4721C28.81 10.4838 28.9132 10.4752 29.0119 10.4469C29.1106 10.4186 29.2027 10.3711 29.2829 10.3072C29.3632 10.2432 29.43 10.164 29.4796 10.0741Z" fill="white"/>
<path d="M31.0034 7.85805L31.2904 11.6052L21.448 21.4475C21.3065 21.5951 21.2284 21.7922 21.2305 21.9966C21.2326 22.201 21.3148 22.3965 21.4593 22.541C21.6039 22.6856 21.7994 22.7677 22.0038 22.7698C22.2082 22.7719 22.4053 22.6938 22.5528 22.5522L32.3951 12.7099L36.1422 12.9968C36.2545 13.0054 36.3673 12.9896 36.473 12.9505C36.5786 12.9114 36.6745 12.8499 36.7541 12.7703L42.4403 7.08446C42.5438 6.97792 42.615 6.84427 42.6456 6.69897C42.6763 6.55366 42.6652 6.40264 42.6137 6.26336C42.5621 6.12409 42.4722 6.00226 42.3543 5.91197C42.2364 5.82168 42.0953 5.76661 41.9474 5.75314L38.5104 5.48992L38.2472 2.05284C38.2336 1.90498 38.1785 1.76397 38.0882 1.64611C37.9979 1.52825 37.8761 1.43835 37.7368 1.38681C37.5976 1.33527 37.4466 1.32419 37.3013 1.35484C37.156 1.3855 37.0224 1.45664 36.9158 1.56005L31.2301 7.24617C31.1503 7.32575 31.0888 7.42165 31.0497 7.52727C31.0106 7.6329 30.9948 7.74575 31.0034 7.85805ZM36.8189 3.86635C37.1316 7.50463 36.5163 6.86418 40.134 7.18129L35.9034 11.4114L32.8246 11.1757L32.5888 8.09683L36.8189 3.86635Z" fill="white"/>
</svg>
