<svg width="20" height="24" viewBox="0 0 20 24" fill="none" xmlns="http://www.w3.org/2000/svg">
<path d="M13.4472 13.2001C15.1345 11.9094 16.25 9.7029 16.25 7.20003C16.25 3.22983 13.4464 0 10 0C6.55364 0 3.74997 3.22983 3.74997 7.20003C3.74997 9.70321 4.86553 11.9097 6.55283 13.2001C2.73488 14.8231 0 19.0451 0 24H1.66671C1.66671 18.7063 5.40476 14.4001 10 14.4001C14.5952 14.4001 18.3333 18.7063 18.3333 24H20C20 19.0451 17.2651 14.8231 13.4472 13.2001ZM10 12.48C7.47285 12.48 5.41668 10.1113 5.41668 7.20003C5.41668 4.28876 7.47285 1.92005 10 1.92005C12.5272 1.92005 14.5833 4.28876 14.5833 7.20003C14.5833 10.1113 12.5272 12.48 10 12.48Z" fill="white"/>
</svg>
