<svg width="28" height="37" viewBox="0 0 28 37" fill="none" xmlns="http://www.w3.org/2000/svg">
<path d="M14.9797 13.6215C14.5753 14.5288 13.9022 14.1881 13.5905 14.0843C13.2789 13.9805 12.3346 13.6191 12.3346 13.6191C12.3346 13.6191 12.1812 13.8755 11.8291 14.5813C12.0705 15.1527 12.6593 16.7121 13.2254 17.9649C14.058 16.6791 14.8489 15.3725 14.9833 15.1332C20.0012 4.42189 21.0562 1.17382 21.3167 0.308077C21.3357 0.266561 21.2881 0.231149 21.2679 0.27755C20.402 2.0762 15.3496 12.79 14.9797 13.6203V13.6215Z" fill="#C59D5F"/>
<path d="M12.5284 13.3491C12.5284 13.3491 13.4669 13.7118 13.7939 13.8278C14.121 13.9438 14.4219 13.8608 14.6158 13.4883C15.17 12.4162 19.6135 3.11037 21.0502 0.100408C21.0788 0.0308065 20.9836 -0.0400161 20.9396 0.0271433C19.1187 2.85272 13.4002 11.7434 12.5284 13.3479V13.3491Z" fill="#C59D5F"/>
<path d="M2.92193 0.426502C2.89814 0.393533 2.83987 0.414291 2.86008 0.460692C3.90316 2.81249 8.36684 12.8669 8.71413 13.5775C9.0983 14.3615 9.66443 14.1966 9.66443 14.1966L11.0536 13.6948L2.92193 0.426502Z" fill="#C59D5F"/>
<path d="M27.9069 37.4252C27.9069 37.4252 25.665 37.3507 24.2651 36.5802C23.4075 36.1076 22.6749 35.1283 23.3481 34.2357C24.3888 32.945 24.1533 30.8777 22.7736 29.5174C22.2717 29.0217 21.6842 28.6859 21.0823 28.5125C21.099 28.5101 19.3685 28.1926 18.235 26.9068C17.6701 26.2657 17.2145 25.3609 17.2371 24.1606C17.2371 23.986 17.1396 23.8113 16.9814 23.7185C16.0014 23.1251 14.9845 22.7514 13.4252 19.5241C13.022 18.5448 11.1476 13.9438 11.1476 13.9438L9.85951 14.4359C9.85951 14.4359 8.9663 14.8657 8.42038 13.6434C7.94701 12.5835 3.72358 3.09817 2.61272 0.602283C2.57228 0.533903 2.46999 0.590072 2.49973 0.668222C2.92433 2.23731 4.47407 6.90061 9.9392 17.9453C9.9392 17.9453 11.0287 19.678 11.5853 20.4595C12.1431 21.241 14.372 22.3705 16.0085 24.9164C16.3178 25.3963 16.6032 26.2108 16.8018 26.7004C17.4143 28.6859 17.1289 29.8606 17.2336 31.3014C17.2264 32.2881 17.5404 33.4078 18.3528 34.2076C18.4693 34.3224 21.4974 37.5912 27.9985 38.0003C27.9676 37.7976 27.9057 37.4252 27.9057 37.4252H27.9069ZM11.1666 17.2468C11.4735 17.1198 11.8172 17.2444 11.9849 17.524L10.7634 18.0295C10.6956 17.7084 10.8598 17.3738 11.1666 17.2468ZM11.6662 18.5192C11.3593 18.6462 11.0156 18.5216 10.8479 18.242L12.0693 17.7365C12.1371 18.0576 11.973 18.3922 11.6662 18.5192ZM18.9129 33.6435C17.7807 32.5274 17.6249 30.8081 18.5657 29.8032C19.5052 28.7982 21.1846 28.8886 22.3157 30.0059C23.448 31.1219 23.6038 32.8412 22.6642 33.8462C21.7246 34.8511 20.0452 34.7595 18.9129 33.6435Z" fill="#C59D5F"/>
<path d="M10.0332 18.7012C9.49919 20.3191 8.81293 21.97 7.65448 23.6026C6.97536 24.461 6.35927 25.2107 5.60402 25.7517C4.24815 26.7237 2.99575 26.9728 2.22742 27.2988C0.463591 28.0449 -0.434378 29.9412 0.206689 31.4993C0.747849 32.8169 2.22147 33.4836 3.72602 33.1978C3.72126 33.199 3.7165 33.2015 3.71174 33.2027C3.71174 33.2027 3.72007 33.2003 3.73553 33.1954C3.84971 33.1734 3.96389 33.1465 4.07688 33.1136C4.40633 33.0464 5.93348 32.3895 6.2213 32.9158C6.34737 33.1417 6.49248 33.2723 6.76603 33.2748C7.17517 33.2796 7.43088 33.0342 7.43564 32.6154C7.43921 32.2979 7.2394 32.0732 6.9706 31.956C6.47464 31.8192 6.6911 30.3112 6.62806 29.6372C6.50675 27.9545 7.04553 26.4111 7.74369 25.2767C8.69637 23.7296 9.97018 22.3791 10.5078 21.8027C10.7349 21.5585 10.9502 21.2691 11.3594 20.6879C11.3284 20.6464 10.679 19.8795 10.0344 18.7012H10.0332ZM4.25885 32.3443C2.89108 32.9438 1.37702 32.4347 0.878679 31.2062C0.380336 29.9778 1.08444 28.4955 2.45221 27.8959C3.81998 27.2964 5.33404 27.8055 5.83238 29.0339C6.33072 30.2624 5.62662 31.7447 4.25885 32.3443Z" fill="#C59D5F"/>
</svg>
