<svg viewBox="0 0 28 38" fill="none" xmlns="http://www.w3.org/2000/svg">
<path d="M3.99999 24C1.33302 24.105 1.33364 28.8955 4.00003 29C6.66697 28.895 6.66635 24.1045 3.99999 24ZM3.99999 28.1828C3.64237 28.1778 3.30078 27.9983 3.04932 27.6832C2.79787 27.3682 2.65684 26.943 2.65685 26.5C2.65685 26.0569 2.79789 25.6318 3.04935 25.3167C3.30081 25.0017 3.64241 24.8222 4.00003 24.8172C4.35782 24.8219 4.69967 25.0012 4.95134 25.3163C5.20301 25.6314 5.34417 26.0568 5.34417 26.5C5.34416 26.9433 5.20299 27.3687 4.95131 27.6837C4.69964 27.9988 4.35778 28.1781 3.99999 28.1828Z" fill="black"/>
<path d="M27.5838 23.0338L24.641 21.7339C24.4804 19.9195 24.1839 18.1313 23.756 16.396L27.5848 14.7052C27.6929 14.6547 27.7884 14.5651 27.8607 14.4464C27.9329 14.3277 27.9792 14.1845 27.9942 14.0328C28.0093 13.8811 27.9926 13.7267 27.946 13.5869C27.8993 13.4472 27.8246 13.3274 27.7302 13.2409L26.3832 12.0484C26.1564 11.8519 25.8829 11.7752 25.6161 11.8333L22.9516 12.4649C22.5893 10.0715 22.4921 7.61998 22.6633 5.18886C22.8119 3.54033 23.1111 1.92234 23.554 0.370996L22.8303 0C21.8693 3.3396 21.5635 6.95228 21.9421 10.4944C22.0075 11.2669 22.0918 11.9686 22.1885 12.6458L21.0867 12.907C20.6193 10.8139 20.4274 8.62827 20.5194 6.44746C20.6053 4.807 20.8443 3.18734 21.231 1.6262L20.4942 1.30244C19.5432 5.11667 19.4828 9.22731 20.3211 13.0885L18.6164 13.4926C17.6624 10.2633 17.4025 6.74205 17.866 3.3259L17.1028 3.14247C16.9014 4.63082 16.8234 6.14429 16.8701 7.65548C16.9454 9.71984 17.2732 11.7538 17.8405 13.6765L16.0808 14.0937C15.1356 11.1821 14.7016 8.01997 14.8121 4.84959C14.8725 3.31837 15.0515 1.79964 15.346 0.317687L14.5961 0.0532814C13.663 4.77079 13.9113 9.76689 15.303 14.278L11.2274 15.2441C11.0414 15.2937 10.8691 15.4104 10.7291 15.5815L7.00324 13.9343C8.85013 10.8776 7.27788 5.97534 4.36775 5.59425C-0.919156 5.02639 -1.62911 15.2329 3.6553 15.9747C4.99188 16.3727 6.28478 16.9981 7.50239 17.8355C7.96935 18.1315 8.41748 18.478 8.8423 18.8714C7.3477 20.1226 5.7234 21.0729 4.02165 21.6916C0.415448 21.7495 -1.41524 27.5671 1.30857 30.8648C3.60257 33.7028 7.56446 31.6296 7.78444 27.451C7.87916 26.145 7.59901 24.8397 7.00072 23.7994L10.7245 22.1529C10.8666 22.3277 11.0432 22.4446 11.2334 22.4895L17.3952 23.9511C17.3459 27.997 15.7481 32.3253 12.6324 36.8265C12.576 36.9079 12.5406 37.0114 12.5315 37.1217C12.5224 37.232 12.54 37.3433 12.5817 37.4392C12.6235 37.5351 12.6872 37.6106 12.7634 37.6545C12.8397 37.6984 12.9245 37.7084 13.0053 37.6831C15.8819 36.9698 19.2514 33.3237 20.2205 28.8694C20.9221 32.5839 18.9358 36.0271 17.6735 37.0571C17.593 37.1321 17.5368 37.2451 17.5162 37.3733C17.4956 37.5014 17.5122 37.6353 17.5625 37.7478C17.6128 37.8603 17.6932 37.9432 17.7874 37.9796C17.8817 38.016 17.9827 38.0034 18.0702 37.9441C21.0611 36.0999 24.7548 31.5029 24.8022 25.7069C25.2419 25.7852 25.9875 26.1339 26.3837 25.6846L27.7357 24.4941C27.8292 24.4067 27.9028 24.2864 27.9484 24.1466C27.994 24.0068 28.0098 23.8529 27.9941 23.7019C27.9784 23.5508 27.9318 23.4085 27.8594 23.2906C27.787 23.1728 27.6916 23.0839 27.5838 23.0338ZM25.7458 12.8544C25.8189 12.8391 25.8937 12.8597 25.9563 12.9124L27.0267 13.8608C24.7027 14.8836 19.2992 17.2718 16.9266 18.3214L11.9553 16.1236L25.7458 12.8544ZM6.24873 24.2088C7.91753 26.6043 6.70744 30.7881 4.27791 31.1162C3.83949 31.1839 3.39533 31.1273 2.97436 30.9502C2.55339 30.7731 2.16505 30.4795 1.83464 30.0885C1.50423 29.6975 1.23915 29.2178 1.05668 28.6808C0.874213 28.1437 0.778439 27.5613 0.7756 26.9715C0.799626 24.3106 2.36465 22.8061 4.23615 22.6873C5.47778 22.2127 6.68561 21.5924 7.84554 20.8337C8.40779 20.4792 8.94332 20.0535 9.44475 19.5625C9.46683 19.5927 9.49513 19.6251 9.51601 19.6547C9.8369 20.1309 10.1048 20.6663 10.3116 21.2445L6.48242 22.9374C6.39237 22.9832 6.31199 23.0575 6.24817 23.154C6.18435 23.2504 6.139 23.3661 6.11602 23.4912C6.09304 23.6162 6.09311 23.7469 6.11622 23.8719C6.13934 23.9969 6.18481 24.1125 6.24873 24.2088ZM11.1582 21.2458C10.1203 17.5648 6.90618 16.2011 4.23409 15.0519C2.37133 14.9366 0.795554 13.4264 0.775574 10.7681C0.880166 5.49165 6.52496 5.13741 7.01231 10.3818C7.05288 10.9482 7.00619 11.5196 6.87512 12.0609C6.74406 12.6021 6.53139 13.1018 6.25025 13.5289C6.18537 13.6254 6.13931 13.7418 6.11615 13.8678C6.09298 13.9937 6.09342 14.1254 6.11743 14.251C6.14145 14.3767 6.18829 14.4926 6.2538 14.5882C6.31932 14.6839 6.40149 14.7566 6.49303 14.7997L16.813 19.3616C17.1122 20.5027 17.3016 21.6899 17.3767 22.8948L11.3646 21.4684C11.3198 21.4547 11.2779 21.4276 11.2422 21.389C11.2064 21.3504 11.1777 21.3014 11.1582 21.2458ZM23.6438 28.6018C23.0054 31.1449 21.796 33.3633 20.1803 34.9548C21.3425 32.7845 21.3327 28.777 20.5359 26.8332C20.5013 26.7344 20.4444 26.6526 20.3732 26.5993C20.3019 26.5461 20.22 26.524 20.1389 26.5362C20.0578 26.5484 19.9816 26.5943 19.921 26.6675C19.8604 26.7406 19.8186 26.8373 19.8013 26.9439C19.5049 28.9874 18.8301 30.8991 17.8384 32.5043C16.8468 34.1094 15.5699 35.3568 14.1246 36.1324C17.7059 30.2078 19.0651 25.3598 17.57 19.1278L18.9855 18.5027C19.4916 21.3118 19.4773 24.2436 18.9438 27.0437C19.3395 25.5686 19.6078 24.0381 19.7436 22.4817C19.8653 21.0549 19.8462 19.613 19.6868 18.1929L21.1849 17.5314L21.5681 19.6366C21.9761 22.335 22.1546 25.0863 22.1004 27.8383C22.4198 24.304 22.3495 20.7263 21.8916 17.2193L23.0198 16.7211C23.8026 20.3403 24.5287 24.283 23.6438 28.6018ZM25.9492 24.8266C25.861 24.9927 24.9605 24.6613 24.8193 24.6592C24.8142 24.0441 24.7863 23.4474 24.7426 22.8696L27.0262 23.8783L25.9492 24.8266Z" fill="black"/>
<path d="M3.99999 8C1.33324 8.10506 1.33342 12.8953 4.00003 13C6.66719 12.8948 6.66613 8.10457 3.99999 8ZM3.99999 12.1827C3.64222 12.1781 3.30037 11.9988 3.04869 11.6837C2.79702 11.3686 2.65585 10.9432 2.65586 10.5C2.65586 10.0567 2.79704 9.6313 3.04872 9.31624C3.3004 9.00117 3.64226 8.82186 4.00003 8.81726C4.3578 8.82187 4.69965 9.00119 4.95133 9.31627C5.203 9.63135 5.34417 10.0567 5.34416 10.5C5.34416 10.9433 5.20298 11.3687 4.9513 11.6837C4.69962 11.9988 4.35776 12.1781 3.99999 12.1827Z" fill="black"/>
<path d="M12 18C11.7335 18.0037 11.4792 18.1107 11.292 18.2978C11.1049 18.4849 11 18.7372 11 19C11 19.2628 11.1049 19.5151 11.292 19.7022C11.4792 19.8893 11.7335 19.9963 12 20C12.2665 19.9963 12.5208 19.8893 12.708 19.7022C12.8951 19.5151 13 19.2628 13 19C13 18.7372 12.8951 18.4849 12.708 18.2978C12.5208 18.1107 12.2665 18.0037 12 18Z" fill="black"/>
</svg>
